<?xml version="1.0" encoding="UTF-8"?>
<svg xmlns="http://www.w3.org/2000/svg" xmlns:xlink="http://www.w3.org/1999/xlink" width="1280" height="720" viewBox="0 0 1280 720">
<defs>
<g>
<g id="glyph-0-0">
<path d="M 1.015625 -7.296875 L 4.703125 -7.296875 L 4.703125 -6.453125 L 1.90625 -6.453125 L 1.90625 -4.671875 C 2.050781 -4.722656 2.191406 -4.757812 2.328125 -4.78125 C 2.472656 -4.800781 2.617188 -4.8125 2.765625 -4.8125 C 3.515625 -4.8125 4.109375 -4.585938 4.546875 -4.140625 C 4.992188 -3.703125 5.21875 -3.101562 5.21875 -2.34375 C 5.21875 -1.570312 4.984375 -0.960938 4.515625 -0.515625 C 4.054688 -0.078125 3.425781 0.140625 2.625 0.140625 C 2.238281 0.140625 1.882812 0.113281 1.5625 0.0625 C 1.238281 0.0078125 0.953125 -0.0664062 0.703125 -0.171875 L 0.703125 -1.171875 C 0.992188 -1.003906 1.289062 -0.878906 1.59375 -0.796875 C 1.90625 -0.722656 2.21875 -0.6875 2.53125 -0.6875 C 3.070312 -0.6875 3.488281 -0.828125 3.78125 -1.109375 C 4.082031 -1.398438 4.234375 -1.8125 4.234375 -2.34375 C 4.234375 -2.863281 4.078125 -3.265625 3.765625 -3.546875 C 3.460938 -3.835938 3.039062 -3.984375 2.5 -3.984375 C 2.238281 -3.984375 1.984375 -3.953125 1.734375 -3.890625 C 1.484375 -3.835938 1.242188 -3.75 1.015625 -3.625 Z "/>
</g>
<g id="glyph-0-1">
<path d="M 2.390625 -1.484375 L 3.625 -1.484375 L 3.625 0 L 2.390625 0 Z "/>
</g>
<g id="glyph-0-2">
</g>
<g id="glyph-0-3">
<path d="M 4.9375 -7.046875 L 4.9375 -6.046875 C 4.644531 -6.234375 4.347656 -6.375 4.046875 -6.46875 C 3.742188 -6.570312 3.4375 -6.625 3.125 -6.625 C 2.664062 -6.625 2.300781 -6.515625 2.03125 -6.296875 C 1.757812 -6.078125 1.625 -5.785156 1.625 -5.421875 C 1.625 -5.097656 1.710938 -4.847656 1.890625 -4.671875 C 2.066406 -4.503906 2.394531 -4.367188 2.875 -4.265625 L 3.40625 -4.140625 C 4.082031 -3.984375 4.578125 -3.734375 4.890625 -3.390625 C 5.203125 -3.046875 5.359375 -2.582031 5.359375 -2 C 5.359375 -1.300781 5.144531 -0.769531 4.71875 -0.40625 C 4.289062 -0.0390625 3.664062 0.140625 2.84375 0.140625 C 2.5 0.140625 2.15625 0.101562 1.8125 0.03125 C 1.46875 -0.0390625 1.117188 -0.148438 0.765625 -0.296875 L 0.765625 -1.34375 C 1.140625 -1.101562 1.492188 -0.925781 1.828125 -0.8125 C 2.160156 -0.707031 2.5 -0.65625 2.84375 -0.65625 C 3.34375 -0.65625 3.726562 -0.765625 4 -0.984375 C 4.28125 -1.210938 4.421875 -1.523438 4.421875 -1.921875 C 4.421875 -2.285156 4.320312 -2.5625 4.125 -2.75 C 3.9375 -2.945312 3.609375 -3.097656 3.140625 -3.203125 L 2.609375 -3.328125 C 1.929688 -3.484375 1.4375 -3.710938 1.125 -4.015625 C 0.820312 -4.328125 0.671875 -4.742188 0.671875 -5.265625 C 0.671875 -5.921875 0.890625 -6.441406 1.328125 -6.828125 C 1.773438 -7.222656 2.359375 -7.421875 3.078125 -7.421875 C 3.359375 -7.421875 3.648438 -7.390625 3.953125 -7.328125 C 4.265625 -7.265625 4.59375 -7.171875 4.9375 -7.046875 Z "/>
</g>
<g id="glyph-0-4">
<path d="M 3 -7.015625 L 3 -5.46875 L 5.046875 -5.46875 L 5.046875 -4.765625 L 3 -4.765625 L 3 -1.796875 C 3 -1.398438 3.070312 -1.117188 3.21875 -0.953125 C 3.375 -0.796875 3.644531 -0.71875 4.03125 -0.71875 L 5.046875 -0.71875 L 5.046875 0 L 3.9375 0 C 3.269531 0 2.796875 -0.132812 2.515625 -0.40625 C 2.234375 -0.675781 2.09375 -1.140625 2.09375 -1.796875 L 2.09375 -4.765625 L 0.640625 -4.765625 L 0.640625 -5.46875 L 2.09375 -5.46875 L 2.09375 -7.015625 Z "/>
</g>
<g id="glyph-0-5">
<path d="M 3.421875 -2.75 L 3.125 -2.75 C 2.601562 -2.75 2.207031 -2.65625 1.9375 -2.46875 C 1.675781 -2.289062 1.546875 -2.019531 1.546875 -1.65625 C 1.546875 -1.320312 1.644531 -1.0625 1.84375 -0.875 C 2.039062 -0.695312 2.316406 -0.609375 2.671875 -0.609375 C 3.160156 -0.609375 3.546875 -0.78125 3.828125 -1.125 C 4.117188 -1.46875 4.265625 -1.941406 4.265625 -2.546875 L 4.265625 -2.75 Z M 5.171875 -3.125 L 5.171875 0 L 4.265625 0 L 4.265625 -0.8125 C 4.078125 -0.488281 3.835938 -0.25 3.546875 -0.09375 C 3.253906 0.0625 2.898438 0.140625 2.484375 0.140625 C 1.921875 0.140625 1.472656 -0.015625 1.140625 -0.328125 C 0.816406 -0.640625 0.65625 -1.0625 0.65625 -1.59375 C 0.65625 -2.195312 0.859375 -2.65625 1.265625 -2.96875 C 1.671875 -3.289062 2.269531 -3.453125 3.0625 -3.453125 L 4.265625 -3.453125 L 4.265625 -3.59375 C 4.265625 -4.03125 4.15625 -4.347656 3.9375 -4.546875 C 3.71875 -4.742188 3.367188 -4.84375 2.890625 -4.84375 C 2.585938 -4.84375 2.28125 -4.796875 1.96875 -4.703125 C 1.65625 -4.617188 1.347656 -4.492188 1.046875 -4.328125 L 1.046875 -5.21875 C 1.378906 -5.34375 1.695312 -5.4375 2 -5.5 C 2.3125 -5.5625 2.609375 -5.59375 2.890625 -5.59375 C 3.335938 -5.59375 3.722656 -5.523438 4.046875 -5.390625 C 4.367188 -5.265625 4.628906 -5.066406 4.828125 -4.796875 C 4.953125 -4.640625 5.039062 -4.441406 5.09375 -4.203125 C 5.144531 -3.960938 5.171875 -3.601562 5.171875 -3.125 Z "/>
</g>
<g id="glyph-0-6">
<path d="M 5.640625 -4.34375 C 5.453125 -4.488281 5.253906 -4.59375 5.046875 -4.65625 C 4.847656 -4.726562 4.632812 -4.765625 4.40625 -4.765625 C 3.84375 -4.765625 3.410156 -4.585938 3.109375 -4.234375 C 2.816406 -3.890625 2.671875 -3.382812 2.671875 -2.71875 L 2.671875 0 L 1.765625 0 L 1.765625 -5.46875 L 2.671875 -5.46875 L 2.671875 -4.40625 C 2.816406 -4.789062 3.046875 -5.082031 3.359375 -5.28125 C 3.671875 -5.488281 4.039062 -5.59375 4.46875 -5.59375 C 4.6875 -5.59375 4.890625 -5.566406 5.078125 -5.515625 C 5.273438 -5.460938 5.460938 -5.378906 5.640625 -5.265625 Z "/>
</g>
<g id="glyph-0-7">
<path d="M 5.125 -3.390625 L 5.125 0 L 4.234375 0 L 4.234375 -3.390625 C 4.234375 -3.878906 4.144531 -4.238281 3.96875 -4.46875 C 3.800781 -4.695312 3.53125 -4.8125 3.15625 -4.8125 C 2.738281 -4.8125 2.414062 -4.660156 2.1875 -4.359375 C 1.957031 -4.066406 1.84375 -3.644531 1.84375 -3.09375 L 1.84375 0 L 0.953125 0 L 0.953125 -7.59375 L 1.84375 -7.59375 L 1.84375 -4.65625 C 2.007812 -4.96875 2.226562 -5.203125 2.5 -5.359375 C 2.769531 -5.515625 3.09375 -5.59375 3.46875 -5.59375 C 4.03125 -5.59375 4.445312 -5.410156 4.71875 -5.046875 C 4.988281 -4.679688 5.125 -4.128906 5.125 -3.390625 Z "/>
</g>
<g id="glyph-0-8">
<path d="M 5.4375 -2.953125 L 5.4375 -2.515625 L 1.53125 -2.515625 L 1.53125 -2.484375 C 1.53125 -1.890625 1.6875 -1.429688 2 -1.109375 C 2.3125 -0.785156 2.753906 -0.625 3.328125 -0.625 C 3.609375 -0.625 3.90625 -0.664062 4.21875 -0.75 C 4.53125 -0.84375 4.863281 -0.984375 5.21875 -1.171875 L 5.21875 -0.28125 C 4.875 -0.132812 4.539062 -0.03125 4.21875 0.03125 C 3.90625 0.101562 3.601562 0.140625 3.3125 0.140625 C 2.457031 0.140625 1.789062 -0.113281 1.3125 -0.625 C 0.832031 -1.132812 0.59375 -1.835938 0.59375 -2.734375 C 0.59375 -3.597656 0.828125 -4.289062 1.296875 -4.8125 C 1.765625 -5.332031 2.390625 -5.59375 3.171875 -5.59375 C 3.867188 -5.59375 4.421875 -5.359375 4.828125 -4.890625 C 5.234375 -4.421875 5.4375 -3.773438 5.4375 -2.953125 Z M 4.53125 -3.21875 C 4.519531 -3.75 4.394531 -4.148438 4.15625 -4.421875 C 3.914062 -4.703125 3.578125 -4.84375 3.140625 -4.84375 C 2.703125 -4.84375 2.34375 -4.695312 2.0625 -4.40625 C 1.789062 -4.125 1.628906 -3.726562 1.578125 -3.21875 Z "/>
</g>
<g id="glyph-0-9">
<path d="M 1.25 -5.46875 L 3.546875 -5.46875 L 3.546875 -0.703125 L 5.328125 -0.703125 L 5.328125 0 L 0.875 0 L 0.875 -0.703125 L 2.65625 -0.703125 L 2.65625 -4.765625 L 1.25 -4.765625 Z M 2.65625 -7.59375 L 3.546875 -7.59375 L 3.546875 -6.453125 L 2.65625 -6.453125 Z "/>
</g>
<g id="glyph-0-10">
<path d="M 5.125 -3.390625 L 5.125 0 L 4.234375 0 L 4.234375 -3.390625 C 4.234375 -3.878906 4.144531 -4.238281 3.96875 -4.46875 C 3.800781 -4.695312 3.53125 -4.8125 3.15625 -4.8125 C 2.738281 -4.8125 2.414062 -4.660156 2.1875 -4.359375 C 1.957031 -4.066406 1.84375 -3.644531 1.84375 -3.09375 L 1.84375 0 L 0.953125 0 L 0.953125 -5.46875 L 1.84375 -5.46875 L 1.84375 -4.65625 C 2.007812 -4.96875 2.226562 -5.203125 2.5 -5.359375 C 2.769531 -5.515625 3.09375 -5.59375 3.46875 -5.59375 C 4.03125 -5.59375 4.445312 -5.410156 4.71875 -5.046875 C 4.988281 -4.679688 5.125 -4.128906 5.125 -3.390625 Z "/>
</g>
<g id="glyph-0-11">
<path d="M 5.1875 -0.28125 C 4.9375 -0.132812 4.679688 -0.03125 4.421875 0.03125 C 4.171875 0.101562 3.914062 0.140625 3.65625 0.140625 C 2.8125 0.140625 2.148438 -0.109375 1.671875 -0.609375 C 1.191406 -1.117188 0.953125 -1.828125 0.953125 -2.734375 C 0.953125 -3.628906 1.191406 -4.328125 1.671875 -4.828125 C 2.148438 -5.335938 2.8125 -5.59375 3.65625 -5.59375 C 3.914062 -5.59375 4.171875 -5.554688 4.421875 -5.484375 C 4.671875 -5.421875 4.925781 -5.320312 5.1875 -5.1875 L 5.1875 -4.234375 C 4.945312 -4.453125 4.707031 -4.609375 4.46875 -4.703125 C 4.226562 -4.796875 3.957031 -4.84375 3.65625 -4.84375 C 3.09375 -4.84375 2.660156 -4.660156 2.359375 -4.296875 C 2.054688 -3.929688 1.90625 -3.410156 1.90625 -2.734375 C 1.90625 -2.054688 2.054688 -1.535156 2.359375 -1.171875 C 2.660156 -0.804688 3.09375 -0.625 3.65625 -0.625 C 3.96875 -0.625 4.242188 -0.671875 4.484375 -0.765625 C 4.734375 -0.859375 4.96875 -1.007812 5.1875 -1.21875 Z "/>
</g>
<g id="glyph-0-12">
<path d="M 0.484375 -5.46875 L 1.421875 -5.46875 L 3.015625 -0.875 L 4.59375 -5.46875 L 5.53125 -5.46875 L 3.59375 0 L 2.4375 0 Z "/>
</g>
<g id="glyph-0-13">
<path d="M 4.75 -5.28125 L 4.75 -4.40625 C 4.488281 -4.550781 4.226562 -4.660156 3.96875 -4.734375 C 3.707031 -4.804688 3.441406 -4.84375 3.171875 -4.84375 C 2.765625 -4.84375 2.460938 -4.773438 2.265625 -4.640625 C 2.066406 -4.515625 1.96875 -4.316406 1.96875 -4.046875 C 1.96875 -3.804688 2.039062 -3.625 2.1875 -3.5 C 2.34375 -3.382812 2.71875 -3.269531 3.3125 -3.15625 L 3.671875 -3.078125 C 4.117188 -2.992188 4.457031 -2.820312 4.6875 -2.5625 C 4.914062 -2.3125 5.03125 -1.984375 5.03125 -1.578125 C 5.03125 -1.035156 4.835938 -0.613281 4.453125 -0.3125 C 4.066406 -0.0078125 3.535156 0.140625 2.859375 0.140625 C 2.585938 0.140625 2.300781 0.109375 2 0.046875 C 1.707031 -0.00390625 1.390625 -0.0859375 1.046875 -0.203125 L 1.046875 -1.125 C 1.378906 -0.957031 1.695312 -0.828125 2 -0.734375 C 2.3125 -0.648438 2.601562 -0.609375 2.875 -0.609375 C 3.269531 -0.609375 3.578125 -0.6875 3.796875 -0.84375 C 4.015625 -1.007812 4.125 -1.238281 4.125 -1.53125 C 4.125 -1.945312 3.722656 -2.234375 2.921875 -2.390625 L 2.890625 -2.40625 L 2.546875 -2.46875 C 2.023438 -2.570312 1.644531 -2.742188 1.40625 -2.984375 C 1.175781 -3.222656 1.0625 -3.546875 1.0625 -3.953125 C 1.0625 -4.484375 1.238281 -4.890625 1.59375 -5.171875 C 1.945312 -5.453125 2.453125 -5.59375 3.109375 -5.59375 C 3.398438 -5.59375 3.679688 -5.566406 3.953125 -5.515625 C 4.222656 -5.460938 4.488281 -5.382812 4.75 -5.28125 Z "/>
</g>
<g id="glyph-0-14">
<path d="M 3.125 -1.984375 C 3.125 -1.578125 3.195312 -1.269531 3.34375 -1.0625 C 3.488281 -0.863281 3.707031 -0.765625 4 -0.765625 L 5.046875 -0.765625 L 5.046875 0 L 3.90625 0 C 3.375 0 2.957031 -0.171875 2.65625 -0.515625 C 2.363281 -0.859375 2.21875 -1.347656 2.21875 -1.984375 L 2.21875 -6.953125 L 0.78125 -6.953125 L 0.78125 -7.65625 L 3.125 -7.65625 Z "/>
</g>
</g>
</defs>
<g fill="rgb(86.666667%, 86.666667%, 86.666667%)" fill-opacity="1">
<use xlink:href="#glyph-0-0" x="30" y="29.282227"/>
<use xlink:href="#glyph-0-1" x="36" y="29.282227"/>
<use xlink:href="#glyph-0-2" x="42" y="29.282227"/>
<use xlink:href="#glyph-0-3" x="48" y="29.282227"/>
<use xlink:href="#glyph-0-4" x="54" y="29.282227"/>
<use xlink:href="#glyph-0-5" x="60" y="29.282227"/>
<use xlink:href="#glyph-0-6" x="66" y="29.282227"/>
<use xlink:href="#glyph-0-4" x="72" y="29.282227"/>
<use xlink:href="#glyph-0-2" x="78" y="29.282227"/>
<use xlink:href="#glyph-0-4" x="84" y="29.282227"/>
<use xlink:href="#glyph-0-7" x="90" y="29.282227"/>
<use xlink:href="#glyph-0-8" x="96" y="29.282227"/>
<use xlink:href="#glyph-0-2" x="102" y="29.282227"/>
<use xlink:href="#glyph-0-9" x="108" y="29.282227"/>
<use xlink:href="#glyph-0-10" x="114" y="29.282227"/>
<use xlink:href="#glyph-0-4" x="120" y="29.282227"/>
<use xlink:href="#glyph-0-8" x="126" y="29.282227"/>
<use xlink:href="#glyph-0-6" x="132" y="29.282227"/>
<use xlink:href="#glyph-0-5" x="138" y="29.282227"/>
<use xlink:href="#glyph-0-11" x="144" y="29.282227"/>
<use xlink:href="#glyph-0-4" x="150" y="29.282227"/>
<use xlink:href="#glyph-0-9" x="156" y="29.282227"/>
<use xlink:href="#glyph-0-12" x="162" y="29.282227"/>
<use xlink:href="#glyph-0-8" x="168" y="29.282227"/>
<use xlink:href="#glyph-0-2" x="174" y="29.282227"/>
<use xlink:href="#glyph-0-13" x="180" y="29.282227"/>
<use xlink:href="#glyph-0-7" x="186" y="29.282227"/>
<use xlink:href="#glyph-0-8" x="192" y="29.282227"/>
<use xlink:href="#glyph-0-14" x="198" y="29.282227"/>
<use xlink:href="#glyph-0-14" x="204" y="29.282227"/>
</g>
</svg>
