<?xml version="1.0" encoding="UTF-8"?>
<svg xmlns="http://www.w3.org/2000/svg" xmlns:xlink="http://www.w3.org/1999/xlink" width="1280" height="720" viewBox="0 0 1280 720">
<defs>
<g>
<g id="glyph-0-0">
<path d="M 6.03125 -8.609375 L 6.03125 -7.375 C 5.664062 -7.613281 5.300781 -7.789062 4.9375 -7.90625 C 4.570312 -8.03125 4.203125 -8.09375 3.828125 -8.09375 C 3.253906 -8.09375 2.800781 -7.957031 2.46875 -7.6875 C 2.144531 -7.425781 1.984375 -7.070312 1.984375 -6.625 C 1.984375 -6.226562 2.085938 -5.925781 2.296875 -5.71875 C 2.515625 -5.507812 2.921875 -5.335938 3.515625 -5.203125 L 4.15625 -5.0625 C 4.988281 -4.863281 5.59375 -4.554688 5.96875 -4.140625 C 6.351562 -3.722656 6.546875 -3.15625 6.546875 -2.4375 C 6.546875 -1.582031 6.28125 -0.929688 5.75 -0.484375 C 5.226562 -0.046875 4.46875 0.171875 3.46875 0.171875 C 3.050781 0.171875 2.628906 0.125 2.203125 0.03125 C 1.785156 -0.0507812 1.363281 -0.179688 0.9375 -0.359375 L 0.9375 -1.640625 C 1.394531 -1.359375 1.828125 -1.148438 2.234375 -1.015625 C 2.648438 -0.878906 3.0625 -0.8125 3.46875 -0.8125 C 4.082031 -0.8125 4.554688 -0.945312 4.890625 -1.21875 C 5.234375 -1.488281 5.40625 -1.867188 5.40625 -2.359375 C 5.40625 -2.804688 5.285156 -3.144531 5.046875 -3.375 C 4.816406 -3.613281 4.414062 -3.796875 3.84375 -3.921875 L 3.1875 -4.0625 C 2.363281 -4.25 1.765625 -4.53125 1.390625 -4.90625 C 1.015625 -5.289062 0.828125 -5.800781 0.828125 -6.4375 C 0.828125 -7.226562 1.09375 -7.863281 1.625 -8.34375 C 2.164062 -8.820312 2.878906 -9.0625 3.765625 -9.0625 C 4.109375 -9.0625 4.46875 -9.019531 4.84375 -8.9375 C 5.21875 -8.863281 5.613281 -8.753906 6.03125 -8.609375 Z "/>
</g>
<g id="glyph-0-1">
<path d="M 3.65625 -8.578125 L 3.65625 -6.6875 L 6.15625 -6.6875 L 6.15625 -5.828125 L 3.65625 -5.828125 L 3.65625 -2.203125 C 3.65625 -1.710938 3.75 -1.367188 3.9375 -1.171875 C 4.125 -0.972656 4.453125 -0.875 4.921875 -0.875 L 6.15625 -0.875 L 6.15625 0 L 4.8125 0 C 3.988281 0 3.40625 -0.160156 3.0625 -0.484375 C 2.726562 -0.816406 2.5625 -1.390625 2.5625 -2.203125 L 2.5625 -5.828125 L 0.78125 -5.828125 L 0.78125 -6.6875 L 2.5625 -6.6875 L 2.5625 -8.578125 Z "/>
</g>
<g id="glyph-0-2">
<path d="M 6.640625 -3.609375 L 6.640625 -3.078125 L 1.875 -3.078125 L 1.875 -3.046875 C 1.875 -2.316406 2.0625 -1.75 2.4375 -1.34375 C 2.820312 -0.945312 3.363281 -0.75 4.0625 -0.75 C 4.40625 -0.75 4.769531 -0.804688 5.15625 -0.921875 C 5.539062 -1.035156 5.945312 -1.207031 6.375 -1.4375 L 6.375 -0.34375 C 5.957031 -0.164062 5.554688 -0.0351562 5.171875 0.046875 C 4.785156 0.128906 4.410156 0.171875 4.046875 0.171875 C 3.003906 0.171875 2.191406 -0.132812 1.609375 -0.75 C 1.023438 -1.375 0.734375 -2.234375 0.734375 -3.328125 C 0.734375 -4.398438 1.019531 -5.253906 1.59375 -5.890625 C 2.164062 -6.523438 2.929688 -6.84375 3.890625 -6.84375 C 4.734375 -6.84375 5.398438 -6.550781 5.890625 -5.96875 C 6.390625 -5.394531 6.640625 -4.609375 6.640625 -3.609375 Z M 5.53125 -3.9375 C 5.519531 -4.582031 5.367188 -5.070312 5.078125 -5.40625 C 4.785156 -5.738281 4.375 -5.90625 3.84375 -5.90625 C 3.3125 -5.90625 2.875 -5.726562 2.53125 -5.375 C 2.1875 -5.03125 1.984375 -4.550781 1.921875 -3.9375 Z "/>
</g>
<g id="glyph-0-3">
<path d="M 2.234375 -0.84375 L 2.234375 2.546875 L 1.140625 2.546875 L 1.140625 -6.6875 L 2.234375 -6.6875 L 2.234375 -5.828125 C 2.421875 -6.160156 2.664062 -6.410156 2.96875 -6.578125 C 3.269531 -6.753906 3.617188 -6.84375 4.015625 -6.84375 C 4.828125 -6.84375 5.460938 -6.53125 5.921875 -5.90625 C 6.378906 -5.28125 6.609375 -4.414062 6.609375 -3.3125 C 6.609375 -2.226562 6.375 -1.375 5.90625 -0.75 C 5.445312 -0.132812 4.816406 0.171875 4.015625 0.171875 C 3.609375 0.171875 3.253906 0.0859375 2.953125 -0.078125 C 2.648438 -0.253906 2.410156 -0.507812 2.234375 -0.84375 Z M 5.453125 -3.328125 C 5.453125 -4.179688 5.316406 -4.820312 5.046875 -5.25 C 4.785156 -5.6875 4.390625 -5.90625 3.859375 -5.90625 C 3.328125 -5.90625 2.921875 -5.6875 2.640625 -5.25 C 2.367188 -4.820312 2.234375 -4.179688 2.234375 -3.328125 C 2.234375 -2.484375 2.367188 -1.84375 2.640625 -1.40625 C 2.921875 -0.96875 3.328125 -0.75 3.859375 -0.75 C 4.390625 -0.75 4.785156 -0.96875 5.046875 -1.40625 C 5.316406 -1.84375 5.453125 -2.484375 5.453125 -3.328125 Z "/>
</g>
<g id="glyph-0-4">
</g>
<g id="glyph-0-5">
<path d="M 2.875 -4.46875 C 2.875 -4.6875 2.953125 -4.875 3.109375 -5.03125 C 3.265625 -5.195312 3.445312 -5.28125 3.65625 -5.28125 C 3.882812 -5.28125 4.078125 -5.195312 4.234375 -5.03125 C 4.390625 -4.875 4.46875 -4.6875 4.46875 -4.46875 C 4.46875 -4.25 4.390625 -4.0625 4.234375 -3.90625 C 4.078125 -3.75 3.882812 -3.671875 3.65625 -3.671875 C 3.4375 -3.671875 3.25 -3.742188 3.09375 -3.890625 C 2.945312 -4.046875 2.875 -4.238281 2.875 -4.46875 Z M 3.671875 -8.109375 C 3.109375 -8.109375 2.6875 -7.804688 2.40625 -7.203125 C 2.132812 -6.597656 2 -5.675781 2 -4.4375 C 2 -3.207031 2.132812 -2.289062 2.40625 -1.6875 C 2.6875 -1.082031 3.109375 -0.78125 3.671875 -0.78125 C 4.234375 -0.78125 4.65625 -1.082031 4.9375 -1.6875 C 5.21875 -2.289062 5.359375 -3.207031 5.359375 -4.4375 C 5.359375 -5.675781 5.21875 -6.597656 4.9375 -7.203125 C 4.65625 -7.804688 4.234375 -8.109375 3.671875 -8.109375 Z M 3.671875 -9.0625 C 4.617188 -9.0625 5.335938 -8.671875 5.828125 -7.890625 C 6.316406 -7.117188 6.5625 -5.96875 6.5625 -4.4375 C 6.5625 -2.925781 6.316406 -1.78125 5.828125 -1 C 5.335938 -0.21875 4.617188 0.171875 3.671875 0.171875 C 2.722656 0.171875 2.003906 -0.21875 1.515625 -1 C 1.035156 -1.78125 0.796875 -2.925781 0.796875 -4.4375 C 0.796875 -5.96875 1.035156 -7.117188 1.515625 -7.890625 C 2.003906 -8.671875 2.722656 -9.0625 3.671875 -9.0625 Z "/>
</g>
<g id="glyph-0-6">
<path d="M 2.921875 -6.34375 L 4.421875 -6.34375 L 4.421875 -4.53125 L 2.921875 -4.53125 Z M 2.921875 -1.8125 L 4.421875 -1.8125 L 4.421875 0 L 2.921875 0 Z "/>
</g>
<g id="glyph-0-7">
<path d="M 2.375 -7.921875 L 2.375 -4.5625 L 3.78125 -4.5625 C 4.332031 -4.5625 4.765625 -4.707031 5.078125 -5 C 5.390625 -5.300781 5.546875 -5.71875 5.546875 -6.25 C 5.546875 -6.78125 5.390625 -7.191406 5.078125 -7.484375 C 4.773438 -7.773438 4.34375 -7.921875 3.78125 -7.921875 Z M 1.171875 -8.90625 L 3.78125 -8.90625 C 4.769531 -8.90625 5.519531 -8.675781 6.03125 -8.21875 C 6.550781 -7.769531 6.8125 -7.113281 6.8125 -6.25 C 6.8125 -5.363281 6.554688 -4.695312 6.046875 -4.25 C 5.535156 -3.800781 4.78125 -3.578125 3.78125 -3.578125 L 2.375 -3.578125 L 2.375 0 L 1.171875 0 Z "/>
</g>
<g id="glyph-0-8">
<path d="M 6.890625 -5.296875 C 6.648438 -5.484375 6.410156 -5.617188 6.171875 -5.703125 C 5.929688 -5.785156 5.664062 -5.828125 5.375 -5.828125 C 4.6875 -5.828125 4.160156 -5.613281 3.796875 -5.1875 C 3.441406 -4.757812 3.265625 -4.140625 3.265625 -3.328125 L 3.265625 0 L 2.15625 0 L 2.15625 -6.6875 L 3.265625 -6.6875 L 3.265625 -5.375 C 3.441406 -5.84375 3.71875 -6.203125 4.09375 -6.453125 C 4.476562 -6.710938 4.929688 -6.84375 5.453125 -6.84375 C 5.722656 -6.84375 5.972656 -6.804688 6.203125 -6.734375 C 6.441406 -6.671875 6.671875 -6.566406 6.890625 -6.421875 Z "/>
</g>
<g id="glyph-0-9">
<path d="M 3.671875 -5.90625 C 3.117188 -5.90625 2.695312 -5.6875 2.40625 -5.25 C 2.125 -4.820312 1.984375 -4.179688 1.984375 -3.328125 C 1.984375 -2.484375 2.125 -1.84375 2.40625 -1.40625 C 2.695312 -0.96875 3.117188 -0.75 3.671875 -0.75 C 4.234375 -0.75 4.65625 -0.96875 4.9375 -1.40625 C 5.226562 -1.84375 5.375 -2.484375 5.375 -3.328125 C 5.375 -4.179688 5.226562 -4.820312 4.9375 -5.25 C 4.65625 -5.6875 4.234375 -5.90625 3.671875 -5.90625 Z M 3.671875 -6.84375 C 4.597656 -6.84375 5.304688 -6.539062 5.796875 -5.9375 C 6.285156 -5.34375 6.53125 -4.472656 6.53125 -3.328125 C 6.53125 -2.191406 6.285156 -1.320312 5.796875 -0.71875 C 5.316406 -0.125 4.609375 0.171875 3.671875 0.171875 C 2.742188 0.171875 2.035156 -0.125 1.546875 -0.71875 C 1.054688 -1.320312 0.8125 -2.191406 0.8125 -3.328125 C 0.8125 -4.472656 1.054688 -5.34375 1.546875 -5.9375 C 2.035156 -6.539062 2.742188 -6.84375 3.671875 -6.84375 Z "/>
</g>
<g id="glyph-0-10">
<path d="M 3.578125 0.125 L 3.578125 -5.828125 L 1.6875 -5.828125 L 1.6875 -6.6875 L 4.671875 -6.6875 L 4.671875 0.125 C 4.671875 0.894531 4.492188 1.488281 4.140625 1.90625 C 3.785156 2.332031 3.28125 2.546875 2.625 2.546875 L 1.109375 2.546875 L 1.109375 1.609375 L 2.5 1.609375 C 2.863281 1.609375 3.132812 1.484375 3.3125 1.234375 C 3.488281 0.984375 3.578125 0.613281 3.578125 0.125 Z M 3.578125 -9.28125 L 4.671875 -9.28125 L 4.671875 -7.890625 L 3.578125 -7.890625 Z "/>
</g>
<g id="glyph-0-11">
<path d="M 6.328125 -0.34375 C 6.035156 -0.164062 5.734375 -0.0351562 5.421875 0.046875 C 5.109375 0.128906 4.789062 0.171875 4.46875 0.171875 C 3.425781 0.171875 2.613281 -0.132812 2.03125 -0.75 C 1.445312 -1.375 1.15625 -2.234375 1.15625 -3.328125 C 1.15625 -4.429688 1.445312 -5.289062 2.03125 -5.90625 C 2.613281 -6.53125 3.425781 -6.84375 4.46875 -6.84375 C 4.789062 -6.84375 5.101562 -6.800781 5.40625 -6.71875 C 5.707031 -6.632812 6.015625 -6.503906 6.328125 -6.328125 L 6.328125 -5.171875 C 6.035156 -5.429688 5.742188 -5.617188 5.453125 -5.734375 C 5.160156 -5.847656 4.832031 -5.90625 4.46875 -5.90625 C 3.78125 -5.90625 3.25 -5.679688 2.875 -5.234375 C 2.507812 -4.796875 2.328125 -4.160156 2.328125 -3.328125 C 2.328125 -2.503906 2.507812 -1.867188 2.875 -1.421875 C 3.25 -0.972656 3.78125 -0.75 4.46875 -0.75 C 4.84375 -0.75 5.179688 -0.804688 5.484375 -0.921875 C 5.785156 -1.046875 6.066406 -1.234375 6.328125 -1.484375 Z "/>
</g>
<g id="glyph-0-12">
<path d="M 1.15625 -2.53125 L 1.15625 -6.671875 L 2.265625 -6.671875 L 2.265625 -2.53125 C 2.265625 -1.925781 2.367188 -1.484375 2.578125 -1.203125 C 2.796875 -0.921875 3.125 -0.78125 3.5625 -0.78125 C 4.082031 -0.78125 4.476562 -0.960938 4.75 -1.328125 C 5.03125 -1.691406 5.171875 -2.210938 5.171875 -2.890625 L 5.171875 -6.671875 L 6.265625 -6.671875 L 6.265625 0 L 5.171875 0 L 5.171875 -1 C 4.972656 -0.613281 4.703125 -0.320312 4.359375 -0.125 C 4.023438 0.0703125 3.632812 0.171875 3.1875 0.171875 C 2.507812 0.171875 2 -0.0507812 1.65625 -0.5 C 1.320312 -0.945312 1.15625 -1.625 1.15625 -2.53125 Z "/>
</g>
</g>
</defs>
<g fill="rgb(100%, 100%, 100%)" fill-opacity="1">
<use xlink:href="#glyph-0-0" x="30" y="31.345703"/>
<use xlink:href="#glyph-0-1" x="37" y="31.345703"/>
<use xlink:href="#glyph-0-2" x="44" y="31.345703"/>
<use xlink:href="#glyph-0-3" x="51" y="31.345703"/>
<use xlink:href="#glyph-0-4" x="58" y="31.345703"/>
<use xlink:href="#glyph-0-5" x="65" y="31.345703"/>
<use xlink:href="#glyph-0-6" x="72" y="31.345703"/>
<use xlink:href="#glyph-0-4" x="79" y="31.345703"/>
<use xlink:href="#glyph-0-7" x="86" y="31.345703"/>
<use xlink:href="#glyph-0-8" x="93" y="31.345703"/>
<use xlink:href="#glyph-0-9" x="100" y="31.345703"/>
<use xlink:href="#glyph-0-10" x="107" y="31.345703"/>
<use xlink:href="#glyph-0-2" x="114" y="31.345703"/>
<use xlink:href="#glyph-0-11" x="121" y="31.345703"/>
<use xlink:href="#glyph-0-1" x="128" y="31.345703"/>
<use xlink:href="#glyph-0-4" x="135" y="31.345703"/>
<use xlink:href="#glyph-0-0" x="142" y="31.345703"/>
<use xlink:href="#glyph-0-2" x="149" y="31.345703"/>
<use xlink:href="#glyph-0-1" x="156" y="31.345703"/>
<use xlink:href="#glyph-0-12" x="163" y="31.345703"/>
<use xlink:href="#glyph-0-3" x="170" y="31.345703"/>
</g>
</svg>
