<?xml version="1.0" encoding="UTF-8"?>
<svg xmlns="http://www.w3.org/2000/svg" xmlns:xlink="http://www.w3.org/1999/xlink" width="1280" height="720" viewBox="0 0 1280 720">
<defs>
<g>
<g id="glyph-0-0">
<path d="M 1.859375 -2.109375 L 1.859375 -3.375 L 2.25 -3.375 L 2.25 0 L 1.859375 0 L 1.859375 -0.3125 C 1.796875 -0.1875 1.707031 -0.09375 1.59375 -0.03125 C 1.476562 0.03125 1.351562 0.0625 1.21875 0.0625 C 0.914062 0.0625 0.679688 -0.0507812 0.515625 -0.28125 C 0.347656 -0.507812 0.265625 -0.820312 0.265625 -1.21875 C 0.265625 -1.613281 0.347656 -1.921875 0.515625 -2.140625 C 0.691406 -2.367188 0.925781 -2.484375 1.21875 -2.484375 C 1.363281 -2.484375 1.488281 -2.453125 1.59375 -2.390625 C 1.707031 -2.328125 1.796875 -2.234375 1.859375 -2.109375 Z M 0.6875 -1.21875 C 0.6875 -0.90625 0.734375 -0.671875 0.828125 -0.515625 C 0.929688 -0.359375 1.078125 -0.28125 1.265625 -0.28125 C 1.460938 -0.28125 1.609375 -0.359375 1.703125 -0.515625 C 1.804688 -0.671875 1.859375 -0.90625 1.859375 -1.21875 C 1.859375 -1.519531 1.804688 -1.75 1.703125 -1.90625 C 1.609375 -2.0625 1.460938 -2.140625 1.265625 -2.140625 C 1.078125 -2.140625 0.929688 -2.0625 0.828125 -1.90625 C 0.734375 -1.75 0.6875 -1.519531 0.6875 -1.21875 Z "/>
</g>
<g id="glyph-0-1">
<path d="M 2.40625 -1.3125 L 2.40625 -1.125 L 0.6875 -1.125 L 0.6875 -1.109375 C 0.6875 -0.835938 0.753906 -0.628906 0.890625 -0.484375 C 1.023438 -0.347656 1.21875 -0.28125 1.46875 -0.28125 C 1.601562 -0.28125 1.738281 -0.296875 1.875 -0.328125 C 2.007812 -0.367188 2.15625 -0.429688 2.3125 -0.515625 L 2.3125 -0.125 C 2.164062 -0.0625 2.019531 -0.015625 1.875 0.015625 C 1.738281 0.046875 1.601562 0.0625 1.46875 0.0625 C 1.09375 0.0625 0.796875 -0.046875 0.578125 -0.265625 C 0.367188 -0.492188 0.265625 -0.8125 0.265625 -1.21875 C 0.265625 -1.601562 0.367188 -1.910156 0.578125 -2.140625 C 0.785156 -2.367188 1.0625 -2.484375 1.40625 -2.484375 C 1.71875 -2.484375 1.960938 -2.378906 2.140625 -2.171875 C 2.316406 -1.960938 2.40625 -1.675781 2.40625 -1.3125 Z M 2.015625 -1.4375 C 2.003906 -1.664062 1.945312 -1.835938 1.84375 -1.953125 C 1.738281 -2.078125 1.585938 -2.140625 1.390625 -2.140625 C 1.203125 -2.140625 1.046875 -2.078125 0.921875 -1.953125 C 0.796875 -1.828125 0.722656 -1.648438 0.703125 -1.421875 Z "/>
</g>
<g id="glyph-0-2">
<path d="M 2.296875 -3.375 L 2.296875 -3.046875 L 1.84375 -3.046875 C 1.707031 -3.046875 1.609375 -3.015625 1.546875 -2.953125 C 1.492188 -2.890625 1.46875 -2.785156 1.46875 -2.640625 L 1.46875 -2.421875 L 2.296875 -2.421875 L 2.296875 -2.109375 L 1.46875 -2.109375 L 1.46875 0 L 1.078125 0 L 1.078125 -2.109375 L 0.421875 -2.109375 L 0.421875 -2.421875 L 1.078125 -2.421875 L 1.078125 -2.59375 C 1.078125 -2.863281 1.132812 -3.0625 1.25 -3.1875 C 1.375 -3.3125 1.566406 -3.375 1.828125 -3.375 Z "/>
</g>
<g id="glyph-0-3">
<path d="M 1.46875 -2.1875 C 1.507812 -2.28125 1.566406 -2.351562 1.640625 -2.40625 C 1.722656 -2.457031 1.816406 -2.484375 1.921875 -2.484375 C 2.117188 -2.484375 2.253906 -2.40625 2.328125 -2.25 C 2.410156 -2.101562 2.453125 -1.820312 2.453125 -1.40625 L 2.453125 0 L 2.09375 0 L 2.09375 -1.390625 C 2.09375 -1.734375 2.070312 -1.945312 2.03125 -2.03125 C 2 -2.113281 1.929688 -2.15625 1.828125 -2.15625 C 1.710938 -2.15625 1.632812 -2.109375 1.59375 -2.015625 C 1.550781 -1.929688 1.53125 -1.722656 1.53125 -1.390625 L 1.53125 0 L 1.15625 0 L 1.15625 -1.390625 C 1.15625 -1.734375 1.132812 -1.945312 1.09375 -2.03125 C 1.0625 -2.113281 0.988281 -2.15625 0.875 -2.15625 C 0.769531 -2.15625 0.695312 -2.109375 0.65625 -2.015625 C 0.613281 -1.929688 0.59375 -1.722656 0.59375 -1.390625 L 0.59375 0 L 0.234375 0 L 0.234375 -2.421875 L 0.59375 -2.421875 L 0.59375 -2.21875 C 0.644531 -2.300781 0.707031 -2.363281 0.78125 -2.40625 C 0.851562 -2.457031 0.929688 -2.484375 1.015625 -2.484375 C 1.128906 -2.484375 1.222656 -2.457031 1.296875 -2.40625 C 1.367188 -2.351562 1.425781 -2.28125 1.46875 -2.1875 Z "/>
</g>
<g id="glyph-0-4">
<path d="M 1.328125 -2.140625 C 1.128906 -2.140625 0.976562 -2.0625 0.875 -1.90625 C 0.769531 -1.75 0.71875 -1.519531 0.71875 -1.21875 C 0.71875 -0.90625 0.769531 -0.671875 0.875 -0.515625 C 0.976562 -0.359375 1.128906 -0.28125 1.328125 -0.28125 C 1.535156 -0.28125 1.691406 -0.359375 1.796875 -0.515625 C 1.898438 -0.671875 1.953125 -0.90625 1.953125 -1.21875 C 1.953125 -1.519531 1.898438 -1.75 1.796875 -1.90625 C 1.691406 -2.0625 1.535156 -2.140625 1.328125 -2.140625 Z M 1.328125 -2.484375 C 1.671875 -2.484375 1.929688 -2.375 2.109375 -2.15625 C 2.285156 -1.9375 2.375 -1.625 2.375 -1.21875 C 2.375 -0.800781 2.285156 -0.484375 2.109375 -0.265625 C 1.929688 -0.046875 1.671875 0.0625 1.328125 0.0625 C 0.992188 0.0625 0.738281 -0.046875 0.5625 -0.265625 C 0.382812 -0.484375 0.296875 -0.800781 0.296875 -1.21875 C 0.296875 -1.625 0.382812 -1.9375 0.5625 -2.15625 C 0.738281 -2.375 0.992188 -2.484375 1.328125 -2.484375 Z "/>
</g>
<g id="glyph-0-5">
<path d="M 0.421875 -0.921875 L 0.421875 -2.421875 L 0.828125 -2.421875 L 0.828125 -0.921875 C 0.828125 -0.703125 0.863281 -0.539062 0.9375 -0.4375 C 1.007812 -0.332031 1.128906 -0.28125 1.296875 -0.28125 C 1.484375 -0.28125 1.625 -0.347656 1.71875 -0.484375 C 1.820312 -0.617188 1.875 -0.804688 1.875 -1.046875 L 1.875 -2.421875 L 2.28125 -2.421875 L 2.28125 0 L 1.875 0 L 1.875 -0.359375 C 1.800781 -0.222656 1.703125 -0.117188 1.578125 -0.046875 C 1.460938 0.0234375 1.320312 0.0625 1.15625 0.0625 C 0.90625 0.0625 0.71875 -0.015625 0.59375 -0.171875 C 0.476562 -0.335938 0.421875 -0.585938 0.421875 -0.921875 Z "/>
</g>
<g id="glyph-0-6">
<path d="M 1.390625 -0.875 C 1.390625 -0.695312 1.421875 -0.5625 1.484375 -0.46875 C 1.546875 -0.382812 1.644531 -0.34375 1.78125 -0.34375 L 2.234375 -0.34375 L 2.234375 0 L 1.734375 0 C 1.492188 0 1.304688 -0.0703125 1.171875 -0.21875 C 1.046875 -0.375 0.984375 -0.59375 0.984375 -0.875 L 0.984375 -3.078125 L 0.34375 -3.078125 L 0.34375 -3.390625 L 1.390625 -3.390625 Z "/>
</g>
<g id="glyph-0-7">
</g>
<g id="glyph-0-8">
<path d="M 0.4375 -3.234375 L 2.234375 -3.234375 L 2.234375 -2.859375 L 1.546875 -2.859375 L 1.546875 -0.375 L 2.234375 -0.375 L 2.234375 0 L 0.4375 0 L 0.4375 -0.375 L 1.109375 -0.375 L 1.109375 -2.859375 L 0.4375 -2.859375 Z "/>
</g>
<g id="glyph-0-9">
<path d="M 1.859375 -1.234375 C 1.859375 -1.535156 1.804688 -1.757812 1.703125 -1.90625 C 1.609375 -2.0625 1.46875 -2.140625 1.28125 -2.140625 C 1.09375 -2.140625 0.945312 -2.0625 0.84375 -1.90625 C 0.738281 -1.757812 0.6875 -1.535156 0.6875 -1.234375 C 0.6875 -0.929688 0.738281 -0.703125 0.84375 -0.546875 C 0.945312 -0.390625 1.097656 -0.3125 1.296875 -0.3125 C 1.472656 -0.3125 1.609375 -0.390625 1.703125 -0.546875 C 1.804688 -0.703125 1.859375 -0.929688 1.859375 -1.234375 Z M 2.25 -0.15625 C 2.25 0.207031 2.160156 0.484375 1.984375 0.671875 C 1.816406 0.859375 1.566406 0.953125 1.234375 0.953125 C 1.128906 0.953125 1.015625 0.941406 0.890625 0.921875 C 0.773438 0.898438 0.65625 0.867188 0.53125 0.828125 L 0.53125 0.4375 C 0.675781 0.507812 0.804688 0.5625 0.921875 0.59375 C 1.035156 0.625 1.140625 0.640625 1.234375 0.640625 C 1.453125 0.640625 1.609375 0.578125 1.703125 0.453125 C 1.804688 0.335938 1.859375 0.15625 1.859375 -0.09375 L 1.859375 -0.390625 C 1.796875 -0.253906 1.707031 -0.148438 1.59375 -0.078125 C 1.488281 -0.015625 1.359375 0.015625 1.203125 0.015625 C 0.921875 0.015625 0.691406 -0.09375 0.515625 -0.3125 C 0.347656 -0.539062 0.265625 -0.847656 0.265625 -1.234375 C 0.265625 -1.617188 0.347656 -1.921875 0.515625 -2.140625 C 0.691406 -2.367188 0.921875 -2.484375 1.203125 -2.484375 C 1.359375 -2.484375 1.488281 -2.453125 1.59375 -2.390625 C 1.695312 -2.328125 1.785156 -2.234375 1.859375 -2.109375 L 1.859375 -2.421875 L 2.25 -2.421875 Z "/>
</g>
<g id="glyph-0-10">
<path d="M 2.28125 -1.5 L 2.28125 0 L 1.875 0 L 1.875 -1.5 C 1.875 -1.71875 1.832031 -1.878906 1.75 -1.984375 C 1.675781 -2.085938 1.5625 -2.140625 1.40625 -2.140625 C 1.21875 -2.140625 1.070312 -2.070312 0.96875 -1.9375 C 0.875 -1.800781 0.828125 -1.613281 0.828125 -1.375 L 0.828125 0 L 0.421875 0 L 0.421875 -2.421875 L 0.828125 -2.421875 L 0.828125 -2.0625 C 0.890625 -2.195312 0.984375 -2.300781 1.109375 -2.375 C 1.234375 -2.445312 1.378906 -2.484375 1.546875 -2.484375 C 1.785156 -2.484375 1.96875 -2.398438 2.09375 -2.234375 C 2.21875 -2.078125 2.28125 -1.832031 2.28125 -1.5 Z "/>
</g>
<g id="glyph-0-11">
<path d="M 0.5625 -2.421875 L 1.578125 -2.421875 L 1.578125 -0.3125 L 2.359375 -0.3125 L 2.359375 0 L 0.390625 0 L 0.390625 -0.3125 L 1.171875 -0.3125 L 1.171875 -2.109375 L 0.5625 -2.109375 Z M 1.171875 -3.375 L 1.578125 -3.375 L 1.578125 -2.859375 L 1.171875 -2.859375 Z "/>
</g>
<g id="glyph-0-12">
<path d="M 1.328125 -3.109375 L 1.328125 -2.421875 L 2.234375 -2.421875 L 2.234375 -2.109375 L 1.328125 -2.109375 L 1.328125 -0.796875 C 1.328125 -0.617188 1.359375 -0.492188 1.421875 -0.421875 C 1.492188 -0.347656 1.613281 -0.3125 1.78125 -0.3125 L 2.234375 -0.3125 L 2.234375 0 L 1.75 0 C 1.445312 0 1.234375 -0.0546875 1.109375 -0.171875 C 0.992188 -0.296875 0.9375 -0.503906 0.9375 -0.796875 L 0.9375 -2.109375 L 0.28125 -2.109375 L 0.28125 -2.421875 L 0.9375 -2.421875 L 0.9375 -3.109375 Z "/>
</g>
<g id="glyph-0-13">
<path d="M 1.0625 -0.65625 L 1.609375 -0.65625 L 1.609375 0 L 1.0625 0 Z "/>
</g>
<g id="glyph-0-14">
<path d="M 0.1875 -3.234375 L 0.765625 -3.234375 L 1.328125 -1.59375 L 1.890625 -3.234375 L 2.484375 -3.234375 L 2.484375 0 L 2.078125 0 L 2.078125 -2.859375 L 1.5 -1.15625 L 1.171875 -1.15625 L 0.59375 -2.859375 L 0.59375 0 L 0.1875 0 Z "/>
</g>
<g id="glyph-0-15">
<path d="M 2.421875 -2.421875 L 1.546875 -1.265625 L 2.5 0 L 2.046875 0 L 1.328125 -0.96875 L 0.625 0 L 0.171875 0 L 1.125 -1.265625 L 0.25 -2.421875 L 0.6875 -2.421875 L 1.328125 -1.546875 L 1.96875 -2.421875 Z "/>
</g>
<g id="glyph-0-16">
<path d="M 0.859375 -2.875 L 0.859375 -1.65625 L 1.375 -1.65625 C 1.570312 -1.65625 1.726562 -1.707031 1.84375 -1.8125 C 1.957031 -1.925781 2.015625 -2.078125 2.015625 -2.265625 C 2.015625 -2.460938 1.957031 -2.613281 1.84375 -2.71875 C 1.726562 -2.820312 1.570312 -2.875 1.375 -2.875 Z M 0.421875 -3.234375 L 1.375 -3.234375 C 1.726562 -3.234375 2 -3.148438 2.1875 -2.984375 C 2.375 -2.828125 2.46875 -2.585938 2.46875 -2.265625 C 2.46875 -1.953125 2.375 -1.710938 2.1875 -1.546875 C 2.007812 -1.378906 1.738281 -1.296875 1.375 -1.296875 L 0.859375 -1.296875 L 0.859375 0 L 0.421875 0 Z "/>
</g>
<g id="glyph-0-17">
<path d="M 2.5 -1.921875 C 2.414062 -1.992188 2.328125 -2.039062 2.234375 -2.0625 C 2.148438 -2.09375 2.054688 -2.109375 1.953125 -2.109375 C 1.703125 -2.109375 1.507812 -2.03125 1.375 -1.875 C 1.25 -1.726562 1.1875 -1.503906 1.1875 -1.203125 L 1.1875 0 L 0.78125 0 L 0.78125 -2.421875 L 1.1875 -2.421875 L 1.1875 -1.953125 C 1.25 -2.117188 1.347656 -2.25 1.484375 -2.34375 C 1.628906 -2.4375 1.796875 -2.484375 1.984375 -2.484375 C 2.078125 -2.484375 2.164062 -2.46875 2.25 -2.4375 C 2.34375 -2.414062 2.425781 -2.378906 2.5 -2.328125 Z "/>
</g>
<g id="glyph-0-18">
<path d="M 1.296875 0.046875 L 1.296875 -2.109375 L 0.609375 -2.109375 L 0.609375 -2.421875 L 1.703125 -2.421875 L 1.703125 0.046875 C 1.703125 0.328125 1.632812 0.539062 1.5 0.6875 C 1.375 0.84375 1.191406 0.921875 0.953125 0.921875 L 0.40625 0.921875 L 0.40625 0.578125 L 0.90625 0.578125 C 1.039062 0.578125 1.140625 0.53125 1.203125 0.4375 C 1.265625 0.351562 1.296875 0.222656 1.296875 0.046875 Z M 1.296875 -3.375 L 1.703125 -3.375 L 1.703125 -2.859375 L 1.296875 -2.859375 Z "/>
</g>
<g id="glyph-0-19">
<path d="M 2.296875 -0.125 C 2.191406 -0.0625 2.082031 -0.015625 1.96875 0.015625 C 1.851562 0.046875 1.738281 0.0625 1.625 0.0625 C 1.25 0.0625 0.953125 -0.046875 0.734375 -0.265625 C 0.523438 -0.492188 0.421875 -0.8125 0.421875 -1.21875 C 0.421875 -1.613281 0.523438 -1.921875 0.734375 -2.140625 C 0.953125 -2.367188 1.25 -2.484375 1.625 -2.484375 C 1.738281 -2.484375 1.847656 -2.46875 1.953125 -2.4375 C 2.066406 -2.40625 2.179688 -2.359375 2.296875 -2.296875 L 2.296875 -1.875 C 2.191406 -1.96875 2.085938 -2.035156 1.984375 -2.078125 C 1.878906 -2.117188 1.757812 -2.140625 1.625 -2.140625 C 1.375 -2.140625 1.179688 -2.054688 1.046875 -1.890625 C 0.910156 -1.734375 0.84375 -1.507812 0.84375 -1.21875 C 0.84375 -0.914062 0.910156 -0.679688 1.046875 -0.515625 C 1.179688 -0.359375 1.375 -0.28125 1.625 -0.28125 C 1.757812 -0.28125 1.878906 -0.300781 1.984375 -0.34375 C 2.097656 -0.382812 2.203125 -0.445312 2.296875 -0.53125 Z "/>
</g>
<g id="glyph-0-20">
<path d="M 2.109375 -2.34375 L 2.109375 -1.953125 C 1.992188 -2.015625 1.878906 -2.0625 1.765625 -2.09375 C 1.648438 -2.132812 1.53125 -2.15625 1.40625 -2.15625 C 1.226562 -2.15625 1.09375 -2.125 1 -2.0625 C 0.914062 -2 0.875 -1.910156 0.875 -1.796875 C 0.875 -1.691406 0.90625 -1.609375 0.96875 -1.546875 C 1.039062 -1.492188 1.207031 -1.441406 1.46875 -1.390625 L 1.625 -1.375 C 1.820312 -1.332031 1.972656 -1.253906 2.078125 -1.140625 C 2.179688 -1.023438 2.234375 -0.878906 2.234375 -0.703125 C 2.234375 -0.460938 2.144531 -0.273438 1.96875 -0.140625 C 1.800781 -0.00390625 1.566406 0.0625 1.265625 0.0625 C 1.140625 0.0625 1.007812 0.046875 0.875 0.015625 C 0.75 -0.00390625 0.613281 -0.0390625 0.46875 -0.09375 L 0.46875 -0.5 C 0.613281 -0.425781 0.753906 -0.367188 0.890625 -0.328125 C 1.023438 -0.285156 1.15625 -0.265625 1.28125 -0.265625 C 1.445312 -0.265625 1.578125 -0.300781 1.671875 -0.375 C 1.773438 -0.445312 1.828125 -0.546875 1.828125 -0.671875 C 1.828125 -0.859375 1.648438 -0.988281 1.296875 -1.0625 L 1.28125 -1.0625 L 1.125 -1.09375 C 0.894531 -1.132812 0.726562 -1.207031 0.625 -1.3125 C 0.519531 -1.425781 0.46875 -1.570312 0.46875 -1.75 C 0.46875 -1.988281 0.546875 -2.171875 0.703125 -2.296875 C 0.859375 -2.421875 1.082031 -2.484375 1.375 -2.484375 C 1.507812 -2.484375 1.632812 -2.46875 1.75 -2.4375 C 1.875 -2.414062 1.992188 -2.382812 2.109375 -2.34375 Z "/>
</g>
<g id="glyph-0-21">
<path d="M 0.8125 -0.3125 L 0.8125 0.921875 L 0.40625 0.921875 L 0.40625 -2.421875 L 0.8125 -2.421875 L 0.8125 -2.109375 C 0.875 -2.234375 0.960938 -2.328125 1.078125 -2.390625 C 1.191406 -2.453125 1.316406 -2.484375 1.453125 -2.484375 C 1.753906 -2.484375 1.988281 -2.367188 2.15625 -2.140625 C 2.320312 -1.921875 2.40625 -1.609375 2.40625 -1.203125 C 2.40625 -0.804688 2.316406 -0.492188 2.140625 -0.265625 C 1.972656 -0.046875 1.742188 0.0625 1.453125 0.0625 C 1.304688 0.0625 1.175781 0.03125 1.0625 -0.03125 C 0.957031 -0.09375 0.875 -0.1875 0.8125 -0.3125 Z M 1.984375 -1.21875 C 1.984375 -1.519531 1.929688 -1.75 1.828125 -1.90625 C 1.734375 -2.0625 1.59375 -2.140625 1.40625 -2.140625 C 1.207031 -2.140625 1.054688 -2.0625 0.953125 -1.90625 C 0.859375 -1.75 0.8125 -1.519531 0.8125 -1.21875 C 0.8125 -0.90625 0.859375 -0.671875 0.953125 -0.515625 C 1.054688 -0.359375 1.207031 -0.28125 1.40625 -0.28125 C 1.59375 -0.28125 1.734375 -0.359375 1.828125 -0.515625 C 1.929688 -0.671875 1.984375 -0.90625 1.984375 -1.21875 Z "/>
</g>
<g id="glyph-0-22">
<path d="M 1 -3.375 L 1.921875 -3.375 L 1.921875 -3.0625 L 1.40625 -3.0625 L 1.40625 0.28125 L 1.921875 0.28125 L 1.921875 0.578125 L 1 0.578125 Z "/>
</g>
<g id="glyph-0-23">
<path d="M 1.515625 -1.21875 L 1.390625 -1.21875 C 1.160156 -1.21875 0.984375 -1.175781 0.859375 -1.09375 C 0.742188 -1.007812 0.6875 -0.890625 0.6875 -0.734375 C 0.6875 -0.585938 0.726562 -0.472656 0.8125 -0.390625 C 0.90625 -0.304688 1.03125 -0.265625 1.1875 -0.265625 C 1.40625 -0.265625 1.578125 -0.34375 1.703125 -0.5 C 1.828125 -0.65625 1.890625 -0.863281 1.890625 -1.125 L 1.890625 -1.21875 Z M 2.296875 -1.390625 L 2.296875 0 L 1.890625 0 L 1.890625 -0.359375 C 1.804688 -0.210938 1.695312 -0.101562 1.5625 -0.03125 C 1.4375 0.03125 1.28125 0.0625 1.09375 0.0625 C 0.851562 0.0625 0.65625 -0.00390625 0.5 -0.140625 C 0.351562 -0.285156 0.28125 -0.472656 0.28125 -0.703125 C 0.28125 -0.972656 0.367188 -1.175781 0.546875 -1.3125 C 0.734375 -1.457031 1.003906 -1.53125 1.359375 -1.53125 L 1.890625 -1.53125 L 1.890625 -1.59375 C 1.890625 -1.789062 1.835938 -1.929688 1.734375 -2.015625 C 1.640625 -2.097656 1.488281 -2.140625 1.28125 -2.140625 C 1.144531 -2.140625 1.003906 -2.117188 0.859375 -2.078125 C 0.722656 -2.046875 0.59375 -1.992188 0.46875 -1.921875 L 0.46875 -2.3125 C 0.613281 -2.375 0.753906 -2.414062 0.890625 -2.4375 C 1.023438 -2.46875 1.15625 -2.484375 1.28125 -2.484375 C 1.476562 -2.484375 1.648438 -2.453125 1.796875 -2.390625 C 1.941406 -2.335938 2.054688 -2.25 2.140625 -2.125 C 2.191406 -2.050781 2.226562 -1.960938 2.25 -1.859375 C 2.28125 -1.753906 2.296875 -1.597656 2.296875 -1.390625 Z "/>
</g>
<g id="glyph-0-24">
<path d="M 1.0625 -2.296875 L 1.609375 -2.296875 L 1.609375 -1.640625 L 1.0625 -1.640625 Z M 1.0625 -0.65625 L 1.609375 -0.65625 L 1.609375 0 L 1.0625 0 Z "/>
</g>
<g id="glyph-0-25">
<path d="M 1.09375 -0.65625 L 1.640625 -0.65625 L 1.640625 -0.203125 L 1.203125 0.625 L 0.875 0.625 L 1.09375 -0.203125 Z "/>
</g>
<g id="glyph-0-26">
<path d="M 1.484375 -3.1875 L 1.25 -2.28125 L 1.78125 -2.28125 L 2.015625 -3.1875 L 2.359375 -3.1875 L 2.140625 -2.28125 L 2.65625 -2.28125 L 2.65625 -1.953125 L 2.046875 -1.953125 L 1.875 -1.234375 L 2.40625 -1.234375 L 2.40625 -0.890625 L 1.78125 -0.890625 L 1.5625 0 L 1.21875 0 L 1.4375 -0.890625 L 0.90625 -0.890625 L 0.6875 0 L 0.34375 0 L 0.5625 -0.890625 L 0 -0.890625 L 0 -1.234375 L 0.640625 -1.234375 L 0.828125 -1.953125 L 0.25 -1.953125 L 0.25 -2.28125 L 0.90625 -2.28125 L 1.140625 -3.1875 Z M 1.703125 -1.953125 L 1.171875 -1.953125 L 1 -1.234375 L 1.53125 -1.234375 Z "/>
</g>
<g id="glyph-0-27">
<path d="M 1.328125 -2.84375 L 0.875 -1.1875 L 1.796875 -1.1875 Z M 1.078125 -3.234375 L 1.59375 -3.234375 L 2.59375 0 L 2.140625 0 L 1.90625 -0.84375 L 0.765625 -0.84375 L 0.53125 0 L 0.078125 0 Z "/>
</g>
<g id="glyph-0-28">
<path d="M 1.921875 -3.359375 C 1.722656 -3.035156 1.578125 -2.707031 1.484375 -2.375 C 1.390625 -2.050781 1.34375 -1.722656 1.34375 -1.390625 C 1.34375 -1.054688 1.390625 -0.722656 1.484375 -0.390625 C 1.578125 -0.0664062 1.722656 0.253906 1.921875 0.578125 L 1.578125 0.578125 C 1.359375 0.234375 1.191406 -0.0976562 1.078125 -0.421875 C 0.972656 -0.742188 0.921875 -1.066406 0.921875 -1.390625 C 0.921875 -1.710938 0.972656 -2.035156 1.078125 -2.359375 C 1.191406 -2.691406 1.359375 -3.023438 1.578125 -3.359375 Z "/>
</g>
<g id="glyph-0-29">
<path d="M 0.75 -3.359375 L 1.09375 -3.359375 C 1.3125 -3.023438 1.472656 -2.691406 1.578125 -2.359375 C 1.691406 -2.035156 1.75 -1.710938 1.75 -1.390625 C 1.75 -1.066406 1.691406 -0.738281 1.578125 -0.40625 C 1.472656 -0.0820312 1.3125 0.242188 1.09375 0.578125 L 0.75 0.578125 C 0.945312 0.242188 1.09375 -0.0820312 1.1875 -0.40625 C 1.28125 -0.738281 1.328125 -1.066406 1.328125 -1.390625 C 1.328125 -1.722656 1.28125 -2.050781 1.1875 -2.375 C 1.09375 -2.707031 0.945312 -3.035156 0.75 -3.359375 Z "/>
</g>
<g id="glyph-0-30">
<path d="M 0.21875 -2.421875 L 0.625 -2.421875 L 1.328125 -0.390625 L 2.046875 -2.421875 L 2.453125 -2.421875 L 1.59375 0 L 1.078125 0 Z "/>
</g>
<g id="glyph-0-31">
<path d="M 1.9375 -3.234375 L 1.9375 -2.03125 L 1.5625 -2.03125 L 1.5625 -3.234375 Z M 1.109375 -3.234375 L 1.109375 -2.03125 L 0.734375 -2.03125 L 0.734375 -3.234375 Z "/>
</g>
<g id="glyph-0-32">
<path d="M 1.046875 -1.625 C 1.046875 -1.707031 1.070312 -1.773438 1.125 -1.828125 C 1.1875 -1.890625 1.253906 -1.921875 1.328125 -1.921875 C 1.410156 -1.921875 1.476562 -1.890625 1.53125 -1.828125 C 1.59375 -1.773438 1.625 -1.707031 1.625 -1.625 C 1.625 -1.539062 1.59375 -1.46875 1.53125 -1.40625 C 1.476562 -1.351562 1.410156 -1.328125 1.328125 -1.328125 C 1.242188 -1.328125 1.175781 -1.351562 1.125 -1.40625 C 1.070312 -1.46875 1.046875 -1.539062 1.046875 -1.625 Z M 1.328125 -2.953125 C 1.128906 -2.953125 0.976562 -2.835938 0.875 -2.609375 C 0.78125 -2.390625 0.734375 -2.054688 0.734375 -1.609375 C 0.734375 -1.160156 0.78125 -0.828125 0.875 -0.609375 C 0.976562 -0.390625 1.128906 -0.28125 1.328125 -0.28125 C 1.535156 -0.28125 1.6875 -0.390625 1.78125 -0.609375 C 1.882812 -0.828125 1.9375 -1.160156 1.9375 -1.609375 C 1.9375 -2.054688 1.882812 -2.390625 1.78125 -2.609375 C 1.6875 -2.835938 1.535156 -2.953125 1.328125 -2.953125 Z M 1.328125 -3.296875 C 1.679688 -3.296875 1.945312 -3.148438 2.125 -2.859375 C 2.300781 -2.578125 2.390625 -2.160156 2.390625 -1.609375 C 2.390625 -1.054688 2.300781 -0.640625 2.125 -0.359375 C 1.945312 -0.078125 1.679688 0.0625 1.328125 0.0625 C 0.984375 0.0625 0.722656 -0.078125 0.546875 -0.359375 C 0.367188 -0.640625 0.28125 -1.054688 0.28125 -1.609375 C 0.28125 -2.160156 0.367188 -2.578125 0.546875 -2.859375 C 0.722656 -3.148438 0.984375 -3.296875 1.328125 -3.296875 Z "/>
</g>
<g id="glyph-0-33">
<path d="M 0.578125 -0.375 L 1.265625 -0.375 L 1.265625 -2.84375 L 0.53125 -2.671875 L 0.53125 -3.078125 L 1.265625 -3.234375 L 1.703125 -3.234375 L 1.703125 -0.375 L 2.375 -0.375 L 2.375 0 L 0.578125 0 Z "/>
</g>
<g id="glyph-0-34">
<path d="M 1.328125 -0.375 L 2.09375 -3.234375 L 2.546875 -3.234375 L 1.59375 0 L 1.078125 0 L 0.125 -3.234375 L 0.578125 -3.234375 Z "/>
</g>
<g id="glyph-0-35">
<path d="M 2.484375 -1.6875 L 2.484375 -1.3125 C 2.367188 -1.226562 2.257812 -1.164062 2.15625 -1.125 C 2.0625 -1.082031 1.957031 -1.0625 1.84375 -1.0625 C 1.707031 -1.0625 1.554688 -1.097656 1.390625 -1.171875 C 1.359375 -1.191406 1.335938 -1.203125 1.328125 -1.203125 C 1.210938 -1.253906 1.117188 -1.285156 1.046875 -1.296875 C 0.972656 -1.316406 0.898438 -1.328125 0.828125 -1.328125 C 0.710938 -1.328125 0.601562 -1.304688 0.5 -1.265625 C 0.394531 -1.222656 0.289062 -1.15625 0.1875 -1.0625 L 0.1875 -1.4375 C 0.300781 -1.53125 0.410156 -1.59375 0.515625 -1.625 C 0.617188 -1.664062 0.734375 -1.6875 0.859375 -1.6875 C 0.929688 -1.6875 1.003906 -1.675781 1.078125 -1.65625 C 1.148438 -1.644531 1.238281 -1.617188 1.34375 -1.578125 C 1.363281 -1.566406 1.390625 -1.554688 1.421875 -1.546875 C 1.585938 -1.460938 1.738281 -1.421875 1.875 -1.421875 C 1.976562 -1.421875 2.078125 -1.441406 2.171875 -1.484375 C 2.273438 -1.535156 2.378906 -1.601562 2.484375 -1.6875 Z "/>
</g>
<g id="glyph-0-36">
<path d="M 0.1875 -2.078125 L 0.1875 -2.484375 L 2.484375 -1.578125 L 2.484375 -1.21875 L 0.1875 -0.3125 L 0.1875 -0.703125 L 2.03125 -1.390625 Z "/>
</g>
<g id="glyph-0-37">
<path d="M 1.328125 -1.53125 C 1.140625 -1.53125 0.988281 -1.472656 0.875 -1.359375 C 0.769531 -1.253906 0.71875 -1.101562 0.71875 -0.90625 C 0.71875 -0.707031 0.769531 -0.550781 0.875 -0.4375 C 0.988281 -0.332031 1.140625 -0.28125 1.328125 -0.28125 C 1.523438 -0.28125 1.675781 -0.332031 1.78125 -0.4375 C 1.894531 -0.550781 1.953125 -0.707031 1.953125 -0.90625 C 1.953125 -1.101562 1.894531 -1.253906 1.78125 -1.359375 C 1.675781 -1.472656 1.523438 -1.53125 1.328125 -1.53125 Z M 0.953125 -1.71875 C 0.765625 -1.769531 0.617188 -1.859375 0.515625 -1.984375 C 0.410156 -2.117188 0.359375 -2.273438 0.359375 -2.453125 C 0.359375 -2.710938 0.445312 -2.914062 0.625 -3.0625 C 0.800781 -3.21875 1.035156 -3.296875 1.328125 -3.296875 C 1.628906 -3.296875 1.867188 -3.21875 2.046875 -3.0625 C 2.222656 -2.914062 2.3125 -2.710938 2.3125 -2.453125 C 2.3125 -2.273438 2.257812 -2.117188 2.15625 -1.984375 C 2.050781 -1.859375 1.90625 -1.769531 1.71875 -1.71875 C 1.9375 -1.664062 2.101562 -1.566406 2.21875 -1.421875 C 2.332031 -1.285156 2.390625 -1.101562 2.390625 -0.875 C 2.390625 -0.582031 2.296875 -0.351562 2.109375 -0.1875 C 1.921875 -0.0195312 1.660156 0.0625 1.328125 0.0625 C 1.003906 0.0625 0.75 -0.015625 0.5625 -0.171875 C 0.375 -0.335938 0.28125 -0.566406 0.28125 -0.859375 C 0.28125 -1.097656 0.335938 -1.285156 0.453125 -1.421875 C 0.566406 -1.566406 0.734375 -1.664062 0.953125 -1.71875 Z M 0.796875 -2.40625 C 0.796875 -2.238281 0.84375 -2.109375 0.9375 -2.015625 C 1.03125 -1.921875 1.160156 -1.875 1.328125 -1.875 C 1.503906 -1.875 1.640625 -1.921875 1.734375 -2.015625 C 1.828125 -2.109375 1.875 -2.238281 1.875 -2.40625 C 1.875 -2.582031 1.828125 -2.71875 1.734375 -2.8125 C 1.640625 -2.90625 1.503906 -2.953125 1.328125 -2.953125 C 1.160156 -2.953125 1.03125 -2.90625 0.9375 -2.8125 C 0.84375 -2.71875 0.796875 -2.582031 0.796875 -2.40625 Z "/>
</g>
<g id="glyph-0-38">
<path d="M 1.640625 -1.53125 C 1.753906 -1.5 1.847656 -1.441406 1.921875 -1.359375 C 2.003906 -1.285156 2.109375 -1.128906 2.234375 -0.890625 L 2.671875 0 L 2.203125 0 L 1.8125 -0.8125 C 1.707031 -1.050781 1.609375 -1.203125 1.515625 -1.265625 C 1.421875 -1.335938 1.304688 -1.375 1.171875 -1.375 L 0.75 -1.375 L 0.75 0 L 0.3125 0 L 0.3125 -3.234375 L 1.21875 -3.234375 C 1.570312 -3.234375 1.84375 -3.148438 2.03125 -2.984375 C 2.21875 -2.828125 2.3125 -2.597656 2.3125 -2.296875 C 2.3125 -2.085938 2.253906 -1.914062 2.140625 -1.78125 C 2.023438 -1.644531 1.859375 -1.5625 1.640625 -1.53125 Z M 0.75 -2.875 L 0.75 -1.734375 L 1.234375 -1.734375 C 1.441406 -1.734375 1.59375 -1.78125 1.6875 -1.875 C 1.789062 -1.96875 1.84375 -2.109375 1.84375 -2.296875 C 1.84375 -2.484375 1.785156 -2.625 1.671875 -2.71875 C 1.566406 -2.820312 1.414062 -2.875 1.21875 -2.875 Z "/>
</g>
<g id="glyph-0-39">
<path d="M 0.71875 -1.203125 C 0.71875 -0.890625 0.765625 -0.65625 0.859375 -0.5 C 0.960938 -0.34375 1.109375 -0.265625 1.296875 -0.265625 C 1.492188 -0.265625 1.640625 -0.34375 1.734375 -0.5 C 1.835938 -0.65625 1.890625 -0.890625 1.890625 -1.203125 C 1.890625 -1.515625 1.835938 -1.75 1.734375 -1.90625 C 1.640625 -2.0625 1.492188 -2.140625 1.296875 -2.140625 C 1.109375 -2.140625 0.960938 -2.0625 0.859375 -1.90625 C 0.765625 -1.75 0.71875 -1.515625 0.71875 -1.203125 Z M 1.890625 -0.296875 C 1.816406 -0.179688 1.722656 -0.0859375 1.609375 -0.015625 C 1.503906 0.046875 1.378906 0.078125 1.234375 0.078125 C 0.941406 0.078125 0.710938 -0.0351562 0.546875 -0.265625 C 0.378906 -0.492188 0.296875 -0.800781 0.296875 -1.1875 C 0.296875 -1.59375 0.378906 -1.910156 0.546875 -2.140625 C 0.710938 -2.367188 0.941406 -2.484375 1.234375 -2.484375 C 1.378906 -2.484375 1.503906 -2.445312 1.609375 -2.375 C 1.722656 -2.3125 1.816406 -2.222656 1.890625 -2.109375 L 1.890625 -2.421875 L 2.28125 -2.421875 L 2.28125 0.9375 L 1.890625 0.9375 Z "/>
</g>
<g id="glyph-0-40">
<path d="M 0.421875 -3.234375 L 2.34375 -3.234375 L 2.34375 -2.859375 L 0.859375 -2.859375 L 0.859375 -1.90625 L 2.28125 -1.90625 L 2.28125 -1.546875 L 0.859375 -1.546875 L 0.859375 -0.375 L 2.390625 -0.375 L 2.390625 0 L 0.421875 0 Z "/>
</g>
<g id="glyph-0-41">
<path d="M 2.671875 0.875 L 2.671875 1.046875 L 0 1.046875 L 0 0.875 Z "/>
</g>
<g id="glyph-0-42">
<path d="M 0.1875 -1.140625 L 2.484375 -1.140625 L 2.484375 -0.765625 L 0.1875 -0.765625 Z M 0.1875 -2.015625 L 2.484375 -2.015625 L 2.484375 -1.640625 L 0.1875 -1.640625 Z "/>
</g>
<g id="glyph-0-43">
<path d="M 2.328125 -0.109375 C 2.210938 -0.0546875 2.097656 -0.015625 1.984375 0.015625 C 1.867188 0.046875 1.742188 0.0625 1.609375 0.0625 C 1.191406 0.0625 0.867188 -0.0820312 0.640625 -0.375 C 0.410156 -0.664062 0.296875 -1.078125 0.296875 -1.609375 C 0.296875 -2.140625 0.410156 -2.550781 0.640625 -2.84375 C 0.878906 -3.144531 1.203125 -3.296875 1.609375 -3.296875 C 1.742188 -3.296875 1.867188 -3.28125 1.984375 -3.25 C 2.097656 -3.21875 2.210938 -3.171875 2.328125 -3.109375 L 2.328125 -2.671875 C 2.222656 -2.753906 2.109375 -2.816406 1.984375 -2.859375 C 1.859375 -2.910156 1.734375 -2.9375 1.609375 -2.9375 C 1.328125 -2.9375 1.113281 -2.828125 0.96875 -2.609375 C 0.832031 -2.390625 0.765625 -2.054688 0.765625 -1.609375 C 0.765625 -1.171875 0.832031 -0.84375 0.96875 -0.625 C 1.113281 -0.40625 1.328125 -0.296875 1.609375 -0.296875 C 1.734375 -0.296875 1.859375 -0.316406 1.984375 -0.359375 C 2.109375 -0.410156 2.222656 -0.476562 2.328125 -0.5625 Z "/>
</g>
<g id="glyph-0-44">
<path d="M 2.28125 -1.5 L 2.28125 0 L 1.875 0 L 1.875 -1.5 C 1.875 -1.71875 1.832031 -1.878906 1.75 -1.984375 C 1.675781 -2.085938 1.5625 -2.140625 1.40625 -2.140625 C 1.21875 -2.140625 1.070312 -2.070312 0.96875 -1.9375 C 0.875 -1.800781 0.828125 -1.613281 0.828125 -1.375 L 0.828125 0 L 0.421875 0 L 0.421875 -3.375 L 0.828125 -3.375 L 0.828125 -2.0625 C 0.890625 -2.195312 0.984375 -2.300781 1.109375 -2.375 C 1.234375 -2.445312 1.378906 -2.484375 1.546875 -2.484375 C 1.785156 -2.484375 1.96875 -2.398438 2.09375 -2.234375 C 2.21875 -2.078125 2.28125 -1.832031 2.28125 -1.5 Z "/>
</g>
<g id="glyph-0-45">
<path d="M 0.9375 -0.359375 C 1.3125 -0.359375 1.570312 -0.445312 1.71875 -0.625 C 1.863281 -0.8125 1.9375 -1.140625 1.9375 -1.609375 C 1.9375 -2.085938 1.863281 -2.414062 1.71875 -2.59375 C 1.570312 -2.78125 1.3125 -2.875 0.9375 -2.875 L 0.734375 -2.875 L 0.734375 -0.359375 Z M 0.953125 -3.234375 C 1.441406 -3.234375 1.800781 -3.101562 2.03125 -2.84375 C 2.269531 -2.582031 2.390625 -2.171875 2.390625 -1.609375 C 2.390625 -1.054688 2.269531 -0.648438 2.03125 -0.390625 C 1.800781 -0.128906 1.441406 0 0.953125 0 L 0.296875 0 L 0.296875 -3.234375 Z "/>
</g>
<g id="glyph-0-46">
<path d="M 1.859375 -0.78125 C 1.796875 -0.613281 1.710938 -0.390625 1.609375 -0.109375 C 1.460938 0.265625 1.363281 0.492188 1.3125 0.578125 C 1.25 0.691406 1.164062 0.773438 1.0625 0.828125 C 0.96875 0.890625 0.851562 0.921875 0.71875 0.921875 L 0.40625 0.921875 L 0.40625 0.59375 L 0.640625 0.59375 C 0.753906 0.59375 0.84375 0.554688 0.90625 0.484375 C 0.976562 0.421875 1.0625 0.25 1.15625 -0.03125 L 0.21875 -2.421875 L 0.640625 -2.421875 L 1.375 -0.53125 L 2.078125 -2.421875 L 2.5 -2.421875 Z "/>
</g>
<g id="glyph-0-47">
<path d="M 1.125 -3.234375 L 1.5625 -3.234375 L 1.5625 -1.8125 L 1.515625 -1.046875 L 1.15625 -1.046875 L 1.125 -1.8125 Z M 1.125 -0.546875 L 1.5625 -0.546875 L 1.5625 0 L 1.125 0 Z "/>
</g>
<g id="glyph-0-48">
<path d="M 1.671875 -3.375 L 1.671875 0.578125 L 0.75 0.578125 L 0.75 0.28125 L 1.265625 0.28125 L 1.265625 -3.0625 L 0.75 -3.0625 L 0.75 -3.375 Z "/>
</g>
<g id="glyph-0-49">
<path d="M 1.515625 -3.234375 L 1.515625 -2.03125 L 1.140625 -2.03125 L 1.140625 -3.234375 Z "/>
</g>
<g id="glyph-0-50">
<path d="M 2.1875 0.40625 L 2.1875 0.71875 L 2.046875 0.71875 C 1.691406 0.71875 1.453125 0.664062 1.328125 0.5625 C 1.203125 0.457031 1.140625 0.242188 1.140625 -0.078125 L 1.140625 -0.59375 C 1.140625 -0.8125 1.101562 -0.960938 1.03125 -1.046875 C 0.957031 -1.128906 0.816406 -1.171875 0.609375 -1.171875 L 0.484375 -1.171875 L 0.484375 -1.484375 L 0.609375 -1.484375 C 0.816406 -1.484375 0.957031 -1.523438 1.03125 -1.609375 C 1.101562 -1.691406 1.140625 -1.835938 1.140625 -2.046875 L 1.140625 -2.578125 C 1.140625 -2.890625 1.203125 -3.097656 1.328125 -3.203125 C 1.453125 -3.316406 1.691406 -3.375 2.046875 -3.375 L 2.1875 -3.375 L 2.1875 -3.0625 L 2.046875 -3.0625 C 1.835938 -3.0625 1.703125 -3.03125 1.640625 -2.96875 C 1.578125 -2.90625 1.546875 -2.769531 1.546875 -2.5625 L 1.546875 -2.03125 C 1.546875 -1.800781 1.515625 -1.632812 1.453125 -1.53125 C 1.390625 -1.425781 1.28125 -1.359375 1.125 -1.328125 C 1.28125 -1.285156 1.390625 -1.210938 1.453125 -1.109375 C 1.515625 -1.003906 1.546875 -0.84375 1.546875 -0.625 L 1.546875 -0.078125 C 1.546875 0.117188 1.578125 0.25 1.640625 0.3125 C 1.703125 0.375 1.835938 0.40625 2.046875 0.40625 Z "/>
</g>
<g id="glyph-0-51">
<path d="M 0.484375 0.40625 L 0.625 0.40625 C 0.832031 0.40625 0.96875 0.375 1.03125 0.3125 C 1.09375 0.25 1.125 0.117188 1.125 -0.078125 L 1.125 -0.625 C 1.125 -0.84375 1.15625 -1.003906 1.21875 -1.109375 C 1.28125 -1.210938 1.390625 -1.285156 1.546875 -1.328125 C 1.390625 -1.359375 1.28125 -1.425781 1.21875 -1.53125 C 1.15625 -1.632812 1.125 -1.800781 1.125 -2.03125 L 1.125 -2.5625 C 1.125 -2.769531 1.09375 -2.90625 1.03125 -2.96875 C 0.96875 -3.03125 0.832031 -3.0625 0.625 -3.0625 L 0.484375 -3.0625 L 0.484375 -3.375 L 0.609375 -3.375 C 0.972656 -3.375 1.210938 -3.316406 1.328125 -3.203125 C 1.453125 -3.097656 1.515625 -2.890625 1.515625 -2.578125 L 1.515625 -2.046875 C 1.515625 -1.835938 1.550781 -1.691406 1.625 -1.609375 C 1.707031 -1.523438 1.847656 -1.484375 2.046875 -1.484375 L 2.1875 -1.484375 L 2.1875 -1.171875 L 2.046875 -1.171875 C 1.847656 -1.171875 1.707031 -1.128906 1.625 -1.046875 C 1.550781 -0.960938 1.515625 -0.8125 1.515625 -0.59375 L 1.515625 -0.078125 C 1.515625 0.242188 1.453125 0.457031 1.328125 0.5625 C 1.210938 0.664062 0.972656 0.71875 0.609375 0.71875 L 0.484375 0.71875 Z "/>
</g>
<g id="glyph-0-52">
<path d="M 0.296875 -3.234375 L 0.859375 -3.234375 L 1.953125 -0.578125 L 1.953125 -3.234375 L 2.375 -3.234375 L 2.375 0 L 1.8125 0 L 0.71875 -2.65625 L 0.71875 0 L 0.296875 0 Z "/>
</g>
<g id="glyph-0-53">
<path d="M 2.1875 -3.125 L 2.1875 -2.6875 C 2.0625 -2.769531 1.929688 -2.832031 1.796875 -2.875 C 1.660156 -2.914062 1.523438 -2.9375 1.390625 -2.9375 C 1.179688 -2.9375 1.015625 -2.890625 0.890625 -2.796875 C 0.773438 -2.703125 0.71875 -2.570312 0.71875 -2.40625 C 0.71875 -2.257812 0.753906 -2.148438 0.828125 -2.078125 C 0.910156 -2.003906 1.0625 -1.941406 1.28125 -1.890625 L 1.515625 -1.84375 C 1.816406 -1.769531 2.035156 -1.65625 2.171875 -1.5 C 2.304688 -1.351562 2.375 -1.148438 2.375 -0.890625 C 2.375 -0.578125 2.28125 -0.335938 2.09375 -0.171875 C 1.90625 -0.015625 1.628906 0.0625 1.265625 0.0625 C 1.109375 0.0625 0.953125 0.046875 0.796875 0.015625 C 0.648438 -0.015625 0.5 -0.0625 0.34375 -0.125 L 0.34375 -0.59375 C 0.507812 -0.488281 0.664062 -0.410156 0.8125 -0.359375 C 0.957031 -0.316406 1.109375 -0.296875 1.265625 -0.296875 C 1.484375 -0.296875 1.648438 -0.34375 1.765625 -0.4375 C 1.890625 -0.539062 1.953125 -0.679688 1.953125 -0.859375 C 1.953125 -1.015625 1.910156 -1.132812 1.828125 -1.21875 C 1.742188 -1.3125 1.597656 -1.378906 1.390625 -1.421875 L 1.15625 -1.484375 C 0.851562 -1.546875 0.632812 -1.644531 0.5 -1.78125 C 0.363281 -1.914062 0.296875 -2.101562 0.296875 -2.34375 C 0.296875 -2.625 0.394531 -2.851562 0.59375 -3.03125 C 0.789062 -3.207031 1.050781 -3.296875 1.375 -3.296875 C 1.488281 -3.296875 1.613281 -3.28125 1.75 -3.25 C 1.894531 -3.21875 2.039062 -3.175781 2.1875 -3.125 Z "/>
</g>
<g id="glyph-0-54">
<path d="M 0.765625 -1.390625 L 1.90625 -1.390625 L 1.90625 -1.03125 L 0.765625 -1.03125 Z "/>
</g>
<g id="glyph-0-55">
<path d="M 1.296875 -1.4375 C 1.484375 -1.4375 1.628906 -1.503906 1.734375 -1.640625 C 1.835938 -1.773438 1.890625 -1.957031 1.890625 -2.1875 C 1.890625 -2.425781 1.835938 -2.613281 1.734375 -2.75 C 1.628906 -2.882812 1.484375 -2.953125 1.296875 -2.953125 C 1.097656 -2.953125 0.945312 -2.882812 0.84375 -2.75 C 0.75 -2.625 0.703125 -2.4375 0.703125 -2.1875 C 0.703125 -1.9375 0.75 -1.75 0.84375 -1.625 C 0.945312 -1.5 1.097656 -1.4375 1.296875 -1.4375 Z M 0.515625 -0.0625 L 0.515625 -0.46875 C 0.597656 -0.414062 0.691406 -0.375 0.796875 -0.34375 C 0.898438 -0.320312 1.007812 -0.3125 1.125 -0.3125 C 1.394531 -0.3125 1.601562 -0.414062 1.75 -0.625 C 1.894531 -0.832031 1.96875 -1.140625 1.96875 -1.546875 C 1.894531 -1.398438 1.796875 -1.285156 1.671875 -1.203125 C 1.554688 -1.128906 1.414062 -1.09375 1.25 -1.09375 C 0.9375 -1.09375 0.695312 -1.1875 0.53125 -1.375 C 0.363281 -1.570312 0.28125 -1.847656 0.28125 -2.203125 C 0.28125 -2.546875 0.363281 -2.8125 0.53125 -3 C 0.707031 -3.195312 0.957031 -3.296875 1.28125 -3.296875 C 1.65625 -3.296875 1.929688 -3.160156 2.109375 -2.890625 C 2.285156 -2.617188 2.375 -2.191406 2.375 -1.609375 C 2.375 -1.066406 2.265625 -0.648438 2.046875 -0.359375 C 1.835938 -0.078125 1.535156 0.0625 1.140625 0.0625 C 1.035156 0.0625 0.925781 0.0507812 0.8125 0.03125 C 0.707031 0.0078125 0.609375 -0.0195312 0.515625 -0.0625 Z "/>
</g>
</g>
</defs>
<g fill="rgb(100%, 100%, 100%)" fill-opacity="1">
<use xlink:href="#glyph-0-0" x="30" y="24.125"/>
<use xlink:href="#glyph-0-1" x="33" y="24.125"/>
<use xlink:href="#glyph-0-2" x="36" y="24.125"/>
<use xlink:href="#glyph-0-3" x="39" y="24.125"/>
<use xlink:href="#glyph-0-4" x="42" y="24.125"/>
<use xlink:href="#glyph-0-0" x="45" y="24.125"/>
<use xlink:href="#glyph-0-5" x="48" y="24.125"/>
<use xlink:href="#glyph-0-6" x="51" y="24.125"/>
<use xlink:href="#glyph-0-1" x="54" y="24.125"/>
<use xlink:href="#glyph-0-7" x="57" y="24.125"/>
<use xlink:href="#glyph-0-8" x="60" y="24.125"/>
<use xlink:href="#glyph-0-9" x="63" y="24.125"/>
<use xlink:href="#glyph-0-10" x="66" y="24.125"/>
<use xlink:href="#glyph-0-11" x="69" y="24.125"/>
<use xlink:href="#glyph-0-12" x="72" y="24.125"/>
<use xlink:href="#glyph-0-1" x="75" y="24.125"/>
<use xlink:href="#glyph-0-13" x="78" y="24.125"/>
<use xlink:href="#glyph-0-14" x="81" y="24.125"/>
<use xlink:href="#glyph-0-11" x="84" y="24.125"/>
<use xlink:href="#glyph-0-15" x="87" y="24.125"/>
<use xlink:href="#glyph-0-16" x="90" y="24.125"/>
<use xlink:href="#glyph-0-17" x="93" y="24.125"/>
<use xlink:href="#glyph-0-4" x="96" y="24.125"/>
<use xlink:href="#glyph-0-18" x="99" y="24.125"/>
<use xlink:href="#glyph-0-1" x="102" y="24.125"/>
<use xlink:href="#glyph-0-19" x="105" y="24.125"/>
<use xlink:href="#glyph-0-12" x="108" y="24.125"/>
<use xlink:href="#glyph-0-7" x="111" y="24.125"/>
<use xlink:href="#glyph-0-0" x="114" y="24.125"/>
<use xlink:href="#glyph-0-4" x="117" y="24.125"/>
<use xlink:href="#glyph-0-7" x="120" y="24.125"/>
</g>
<g fill="rgb(100%, 100%, 100%)" fill-opacity="1">
<use xlink:href="#glyph-0-7" x="30" y="29.125"/>
<use xlink:href="#glyph-0-7" x="33" y="29.125"/>
<use xlink:href="#glyph-0-5" x="36" y="29.125"/>
<use xlink:href="#glyph-0-20" x="39" y="29.125"/>
<use xlink:href="#glyph-0-1" x="42" y="29.125"/>
<use xlink:href="#glyph-0-7" x="45" y="29.125"/>
<use xlink:href="#glyph-0-14" x="48" y="29.125"/>
<use xlink:href="#glyph-0-11" x="51" y="29.125"/>
<use xlink:href="#glyph-0-15" x="54" y="29.125"/>
<use xlink:href="#glyph-0-13" x="57" y="29.125"/>
<use xlink:href="#glyph-0-16" x="60" y="29.125"/>
<use xlink:href="#glyph-0-17" x="63" y="29.125"/>
<use xlink:href="#glyph-0-4" x="66" y="29.125"/>
<use xlink:href="#glyph-0-18" x="69" y="29.125"/>
<use xlink:href="#glyph-0-1" x="72" y="29.125"/>
<use xlink:href="#glyph-0-19" x="75" y="29.125"/>
<use xlink:href="#glyph-0-12" x="78" y="29.125"/>
<use xlink:href="#glyph-0-7" x="81" y="29.125"/>
</g>
<g fill="rgb(100%, 100%, 100%)" fill-opacity="1">
<use xlink:href="#glyph-0-7" x="30" y="39.125"/>
<use xlink:href="#glyph-0-7" x="33" y="39.125"/>
<use xlink:href="#glyph-0-0" x="36" y="39.125"/>
<use xlink:href="#glyph-0-1" x="39" y="39.125"/>
<use xlink:href="#glyph-0-2" x="42" y="39.125"/>
<use xlink:href="#glyph-0-7" x="45" y="39.125"/>
<use xlink:href="#glyph-0-21" x="48" y="39.125"/>
<use xlink:href="#glyph-0-17" x="51" y="39.125"/>
<use xlink:href="#glyph-0-4" x="54" y="39.125"/>
<use xlink:href="#glyph-0-18" x="57" y="39.125"/>
<use xlink:href="#glyph-0-1" x="60" y="39.125"/>
<use xlink:href="#glyph-0-19" x="63" y="39.125"/>
<use xlink:href="#glyph-0-12" x="66" y="39.125"/>
<use xlink:href="#glyph-0-7" x="69" y="39.125"/>
<use xlink:href="#glyph-0-0" x="72" y="39.125"/>
<use xlink:href="#glyph-0-4" x="75" y="39.125"/>
<use xlink:href="#glyph-0-7" x="78" y="39.125"/>
</g>
<g fill="rgb(100%, 100%, 100%)" fill-opacity="1">
<use xlink:href="#glyph-0-7" x="30" y="44.125"/>
<use xlink:href="#glyph-0-7" x="33" y="44.125"/>
<use xlink:href="#glyph-0-7" x="36" y="44.125"/>
<use xlink:href="#glyph-0-7" x="39" y="44.125"/>
<use xlink:href="#glyph-0-22" x="42" y="44.125"/>
<use xlink:href="#glyph-0-7" x="45" y="44.125"/>
</g>
<g fill="rgb(100%, 100%, 100%)" fill-opacity="1">
<use xlink:href="#glyph-0-7" x="30" y="49.125"/>
<use xlink:href="#glyph-0-7" x="33" y="49.125"/>
<use xlink:href="#glyph-0-7" x="36" y="49.125"/>
<use xlink:href="#glyph-0-7" x="39" y="49.125"/>
<use xlink:href="#glyph-0-7" x="42" y="49.125"/>
<use xlink:href="#glyph-0-7" x="45" y="49.125"/>
<use xlink:href="#glyph-0-23" x="48" y="49.125"/>
<use xlink:href="#glyph-0-21" x="51" y="49.125"/>
<use xlink:href="#glyph-0-21" x="54" y="49.125"/>
<use xlink:href="#glyph-0-24" x="57" y="49.125"/>
<use xlink:href="#glyph-0-7" x="60" y="49.125"/>
<use xlink:href="#glyph-0-24" x="63" y="49.125"/>
<use xlink:href="#glyph-0-11" x="66" y="49.125"/>
<use xlink:href="#glyph-0-9" x="69" y="49.125"/>
<use xlink:href="#glyph-0-10" x="72" y="49.125"/>
<use xlink:href="#glyph-0-11" x="75" y="49.125"/>
<use xlink:href="#glyph-0-12" x="78" y="49.125"/>
<use xlink:href="#glyph-0-1" x="81" y="49.125"/>
<use xlink:href="#glyph-0-25" x="84" y="49.125"/>
<use xlink:href="#glyph-0-7" x="87" y="49.125"/>
<use xlink:href="#glyph-0-7" x="90" y="49.125"/>
<use xlink:href="#glyph-0-7" x="93" y="49.125"/>
<use xlink:href="#glyph-0-7" x="96" y="49.125"/>
<use xlink:href="#glyph-0-7" x="99" y="49.125"/>
<use xlink:href="#glyph-0-7" x="102" y="49.125"/>
<use xlink:href="#glyph-0-7" x="105" y="49.125"/>
<use xlink:href="#glyph-0-7" x="108" y="49.125"/>
<use xlink:href="#glyph-0-7" x="111" y="49.125"/>
<use xlink:href="#glyph-0-7" x="114" y="49.125"/>
<use xlink:href="#glyph-0-7" x="117" y="49.125"/>
<use xlink:href="#glyph-0-7" x="120" y="49.125"/>
<use xlink:href="#glyph-0-7" x="123" y="49.125"/>
<use xlink:href="#glyph-0-7" x="126" y="49.125"/>
<use xlink:href="#glyph-0-7" x="129" y="49.125"/>
<use xlink:href="#glyph-0-7" x="132" y="49.125"/>
<use xlink:href="#glyph-0-7" x="135" y="49.125"/>
<use xlink:href="#glyph-0-7" x="138" y="49.125"/>
<use xlink:href="#glyph-0-7" x="141" y="49.125"/>
<use xlink:href="#glyph-0-7" x="144" y="49.125"/>
<use xlink:href="#glyph-0-7" x="147" y="49.125"/>
<use xlink:href="#glyph-0-7" x="150" y="49.125"/>
<use xlink:href="#glyph-0-7" x="153" y="49.125"/>
<use xlink:href="#glyph-0-7" x="156" y="49.125"/>
<use xlink:href="#glyph-0-7" x="159" y="49.125"/>
<use xlink:href="#glyph-0-7" x="162" y="49.125"/>
<use xlink:href="#glyph-0-26" x="165" y="49.125"/>
<use xlink:href="#glyph-0-7" x="168" y="49.125"/>
<use xlink:href="#glyph-0-27" x="171" y="49.125"/>
<use xlink:href="#glyph-0-21" x="174" y="49.125"/>
<use xlink:href="#glyph-0-21" x="177" y="49.125"/>
<use xlink:href="#glyph-0-6" x="180" y="49.125"/>
<use xlink:href="#glyph-0-11" x="183" y="49.125"/>
<use xlink:href="#glyph-0-19" x="186" y="49.125"/>
<use xlink:href="#glyph-0-23" x="189" y="49.125"/>
<use xlink:href="#glyph-0-12" x="192" y="49.125"/>
<use xlink:href="#glyph-0-11" x="195" y="49.125"/>
<use xlink:href="#glyph-0-4" x="198" y="49.125"/>
<use xlink:href="#glyph-0-10" x="201" y="49.125"/>
<use xlink:href="#glyph-0-7" x="204" y="49.125"/>
<use xlink:href="#glyph-0-10" x="207" y="49.125"/>
<use xlink:href="#glyph-0-23" x="210" y="49.125"/>
<use xlink:href="#glyph-0-3" x="213" y="49.125"/>
<use xlink:href="#glyph-0-1" x="216" y="49.125"/>
<use xlink:href="#glyph-0-7" x="219" y="49.125"/>
<use xlink:href="#glyph-0-28" x="222" y="49.125"/>
<use xlink:href="#glyph-0-23" x="225" y="49.125"/>
<use xlink:href="#glyph-0-12" x="228" y="49.125"/>
<use xlink:href="#glyph-0-4" x="231" y="49.125"/>
<use xlink:href="#glyph-0-3" x="234" y="49.125"/>
<use xlink:href="#glyph-0-29" x="237" y="49.125"/>
<use xlink:href="#glyph-0-7" x="240" y="49.125"/>
</g>
<g fill="rgb(100%, 100%, 100%)" fill-opacity="1">
<use xlink:href="#glyph-0-7" x="30" y="54.125"/>
<use xlink:href="#glyph-0-7" x="33" y="54.125"/>
<use xlink:href="#glyph-0-7" x="36" y="54.125"/>
<use xlink:href="#glyph-0-7" x="39" y="54.125"/>
<use xlink:href="#glyph-0-7" x="42" y="54.125"/>
<use xlink:href="#glyph-0-7" x="45" y="54.125"/>
<use xlink:href="#glyph-0-30" x="48" y="54.125"/>
<use xlink:href="#glyph-0-1" x="51" y="54.125"/>
<use xlink:href="#glyph-0-17" x="54" y="54.125"/>
<use xlink:href="#glyph-0-20" x="57" y="54.125"/>
<use xlink:href="#glyph-0-11" x="60" y="54.125"/>
<use xlink:href="#glyph-0-4" x="63" y="54.125"/>
<use xlink:href="#glyph-0-10" x="66" y="54.125"/>
<use xlink:href="#glyph-0-24" x="69" y="54.125"/>
<use xlink:href="#glyph-0-7" x="72" y="54.125"/>
<use xlink:href="#glyph-0-31" x="75" y="54.125"/>
<use xlink:href="#glyph-0-32" x="78" y="54.125"/>
<use xlink:href="#glyph-0-13" x="81" y="54.125"/>
<use xlink:href="#glyph-0-33" x="84" y="54.125"/>
<use xlink:href="#glyph-0-13" x="87" y="54.125"/>
<use xlink:href="#glyph-0-32" x="90" y="54.125"/>
<use xlink:href="#glyph-0-31" x="93" y="54.125"/>
<use xlink:href="#glyph-0-25" x="96" y="54.125"/>
<use xlink:href="#glyph-0-7" x="99" y="54.125"/>
<use xlink:href="#glyph-0-7" x="102" y="54.125"/>
<use xlink:href="#glyph-0-7" x="105" y="54.125"/>
<use xlink:href="#glyph-0-7" x="108" y="54.125"/>
<use xlink:href="#glyph-0-7" x="111" y="54.125"/>
<use xlink:href="#glyph-0-7" x="114" y="54.125"/>
<use xlink:href="#glyph-0-7" x="117" y="54.125"/>
<use xlink:href="#glyph-0-7" x="120" y="54.125"/>
<use xlink:href="#glyph-0-7" x="123" y="54.125"/>
<use xlink:href="#glyph-0-7" x="126" y="54.125"/>
<use xlink:href="#glyph-0-7" x="129" y="54.125"/>
<use xlink:href="#glyph-0-7" x="132" y="54.125"/>
<use xlink:href="#glyph-0-7" x="135" y="54.125"/>
<use xlink:href="#glyph-0-7" x="138" y="54.125"/>
<use xlink:href="#glyph-0-7" x="141" y="54.125"/>
<use xlink:href="#glyph-0-7" x="144" y="54.125"/>
<use xlink:href="#glyph-0-7" x="147" y="54.125"/>
<use xlink:href="#glyph-0-7" x="150" y="54.125"/>
<use xlink:href="#glyph-0-7" x="153" y="54.125"/>
<use xlink:href="#glyph-0-7" x="156" y="54.125"/>
<use xlink:href="#glyph-0-7" x="159" y="54.125"/>
<use xlink:href="#glyph-0-7" x="162" y="54.125"/>
<use xlink:href="#glyph-0-26" x="165" y="54.125"/>
<use xlink:href="#glyph-0-7" x="168" y="54.125"/>
<use xlink:href="#glyph-0-34" x="171" y="54.125"/>
<use xlink:href="#glyph-0-1" x="174" y="54.125"/>
<use xlink:href="#glyph-0-17" x="177" y="54.125"/>
<use xlink:href="#glyph-0-20" x="180" y="54.125"/>
<use xlink:href="#glyph-0-11" x="183" y="54.125"/>
<use xlink:href="#glyph-0-4" x="186" y="54.125"/>
<use xlink:href="#glyph-0-10" x="189" y="54.125"/>
<use xlink:href="#glyph-0-7" x="192" y="54.125"/>
<use xlink:href="#glyph-0-20" x="195" y="54.125"/>
<use xlink:href="#glyph-0-12" x="198" y="54.125"/>
<use xlink:href="#glyph-0-17" x="201" y="54.125"/>
<use xlink:href="#glyph-0-11" x="204" y="54.125"/>
<use xlink:href="#glyph-0-10" x="207" y="54.125"/>
<use xlink:href="#glyph-0-9" x="210" y="54.125"/>
<use xlink:href="#glyph-0-7" x="213" y="54.125"/>
</g>
<g fill="rgb(100%, 100%, 100%)" fill-opacity="1">
<use xlink:href="#glyph-0-7" x="30" y="59.125"/>
<use xlink:href="#glyph-0-7" x="33" y="59.125"/>
<use xlink:href="#glyph-0-7" x="36" y="59.125"/>
<use xlink:href="#glyph-0-7" x="39" y="59.125"/>
<use xlink:href="#glyph-0-7" x="42" y="59.125"/>
<use xlink:href="#glyph-0-7" x="45" y="59.125"/>
<use xlink:href="#glyph-0-1" x="48" y="59.125"/>
<use xlink:href="#glyph-0-6" x="51" y="59.125"/>
<use xlink:href="#glyph-0-11" x="54" y="59.125"/>
<use xlink:href="#glyph-0-15" x="57" y="59.125"/>
<use xlink:href="#glyph-0-11" x="60" y="59.125"/>
<use xlink:href="#glyph-0-17" x="63" y="59.125"/>
<use xlink:href="#glyph-0-24" x="66" y="59.125"/>
<use xlink:href="#glyph-0-7" x="69" y="59.125"/>
<use xlink:href="#glyph-0-31" x="72" y="59.125"/>
<use xlink:href="#glyph-0-35" x="75" y="59.125"/>
<use xlink:href="#glyph-0-36" x="78" y="59.125"/>
<use xlink:href="#glyph-0-7" x="81" y="59.125"/>
<use xlink:href="#glyph-0-33" x="84" y="59.125"/>
<use xlink:href="#glyph-0-13" x="87" y="59.125"/>
<use xlink:href="#glyph-0-33" x="90" y="59.125"/>
<use xlink:href="#glyph-0-37" x="93" y="59.125"/>
<use xlink:href="#glyph-0-31" x="96" y="59.125"/>
<use xlink:href="#glyph-0-25" x="99" y="59.125"/>
<use xlink:href="#glyph-0-7" x="102" y="59.125"/>
<use xlink:href="#glyph-0-7" x="105" y="59.125"/>
<use xlink:href="#glyph-0-7" x="108" y="59.125"/>
<use xlink:href="#glyph-0-7" x="111" y="59.125"/>
<use xlink:href="#glyph-0-7" x="114" y="59.125"/>
<use xlink:href="#glyph-0-7" x="117" y="59.125"/>
<use xlink:href="#glyph-0-7" x="120" y="59.125"/>
<use xlink:href="#glyph-0-7" x="123" y="59.125"/>
<use xlink:href="#glyph-0-7" x="126" y="59.125"/>
<use xlink:href="#glyph-0-7" x="129" y="59.125"/>
<use xlink:href="#glyph-0-7" x="132" y="59.125"/>
<use xlink:href="#glyph-0-7" x="135" y="59.125"/>
<use xlink:href="#glyph-0-7" x="138" y="59.125"/>
<use xlink:href="#glyph-0-7" x="141" y="59.125"/>
<use xlink:href="#glyph-0-7" x="144" y="59.125"/>
<use xlink:href="#glyph-0-7" x="147" y="59.125"/>
<use xlink:href="#glyph-0-7" x="150" y="59.125"/>
<use xlink:href="#glyph-0-7" x="153" y="59.125"/>
<use xlink:href="#glyph-0-7" x="156" y="59.125"/>
<use xlink:href="#glyph-0-7" x="159" y="59.125"/>
<use xlink:href="#glyph-0-7" x="162" y="59.125"/>
<use xlink:href="#glyph-0-26" x="165" y="59.125"/>
<use xlink:href="#glyph-0-7" x="168" y="59.125"/>
<use xlink:href="#glyph-0-38" x="171" y="59.125"/>
<use xlink:href="#glyph-0-1" x="174" y="59.125"/>
<use xlink:href="#glyph-0-39" x="177" y="59.125"/>
<use xlink:href="#glyph-0-5" x="180" y="59.125"/>
<use xlink:href="#glyph-0-11" x="183" y="59.125"/>
<use xlink:href="#glyph-0-17" x="186" y="59.125"/>
<use xlink:href="#glyph-0-1" x="189" y="59.125"/>
<use xlink:href="#glyph-0-0" x="192" y="59.125"/>
<use xlink:href="#glyph-0-7" x="195" y="59.125"/>
<use xlink:href="#glyph-0-40" x="198" y="59.125"/>
<use xlink:href="#glyph-0-6" x="201" y="59.125"/>
<use xlink:href="#glyph-0-11" x="204" y="59.125"/>
<use xlink:href="#glyph-0-15" x="207" y="59.125"/>
<use xlink:href="#glyph-0-11" x="210" y="59.125"/>
<use xlink:href="#glyph-0-17" x="213" y="59.125"/>
<use xlink:href="#glyph-0-7" x="216" y="59.125"/>
<use xlink:href="#glyph-0-30" x="219" y="59.125"/>
<use xlink:href="#glyph-0-1" x="222" y="59.125"/>
<use xlink:href="#glyph-0-17" x="225" y="59.125"/>
<use xlink:href="#glyph-0-20" x="228" y="59.125"/>
<use xlink:href="#glyph-0-11" x="231" y="59.125"/>
<use xlink:href="#glyph-0-4" x="234" y="59.125"/>
<use xlink:href="#glyph-0-10" x="237" y="59.125"/>
<use xlink:href="#glyph-0-7" x="240" y="59.125"/>
</g>
<g fill="rgb(100%, 100%, 100%)" fill-opacity="1">
<use xlink:href="#glyph-0-7" x="30" y="64.125"/>
<use xlink:href="#glyph-0-7" x="33" y="64.125"/>
<use xlink:href="#glyph-0-7" x="36" y="64.125"/>
<use xlink:href="#glyph-0-7" x="39" y="64.125"/>
<use xlink:href="#glyph-0-7" x="42" y="64.125"/>
<use xlink:href="#glyph-0-7" x="45" y="64.125"/>
<use xlink:href="#glyph-0-20" x="48" y="64.125"/>
<use xlink:href="#glyph-0-12" x="51" y="64.125"/>
<use xlink:href="#glyph-0-23" x="54" y="64.125"/>
<use xlink:href="#glyph-0-17" x="57" y="64.125"/>
<use xlink:href="#glyph-0-12" x="60" y="64.125"/>
<use xlink:href="#glyph-0-41" x="63" y="64.125"/>
<use xlink:href="#glyph-0-21" x="66" y="64.125"/>
<use xlink:href="#glyph-0-1" x="69" y="64.125"/>
<use xlink:href="#glyph-0-17" x="72" y="64.125"/>
<use xlink:href="#glyph-0-3" x="75" y="64.125"/>
<use xlink:href="#glyph-0-23" x="78" y="64.125"/>
<use xlink:href="#glyph-0-10" x="81" y="64.125"/>
<use xlink:href="#glyph-0-1" x="84" y="64.125"/>
<use xlink:href="#glyph-0-10" x="87" y="64.125"/>
<use xlink:href="#glyph-0-12" x="90" y="64.125"/>
<use xlink:href="#glyph-0-24" x="93" y="64.125"/>
<use xlink:href="#glyph-0-7" x="96" y="64.125"/>
<use xlink:href="#glyph-0-14" x="99" y="64.125"/>
<use xlink:href="#glyph-0-11" x="102" y="64.125"/>
<use xlink:href="#glyph-0-15" x="105" y="64.125"/>
<use xlink:href="#glyph-0-13" x="108" y="64.125"/>
<use xlink:href="#glyph-0-1" x="111" y="64.125"/>
<use xlink:href="#glyph-0-10" x="114" y="64.125"/>
<use xlink:href="#glyph-0-30" x="117" y="64.125"/>
<use xlink:href="#glyph-0-28" x="120" y="64.125"/>
<use xlink:href="#glyph-0-29" x="123" y="64.125"/>
<use xlink:href="#glyph-0-7" x="126" y="64.125"/>
<use xlink:href="#glyph-0-42" x="129" y="64.125"/>
<use xlink:href="#glyph-0-42" x="132" y="64.125"/>
<use xlink:href="#glyph-0-7" x="135" y="64.125"/>
<use xlink:href="#glyph-0-24" x="138" y="64.125"/>
<use xlink:href="#glyph-0-21" x="141" y="64.125"/>
<use xlink:href="#glyph-0-17" x="144" y="64.125"/>
<use xlink:href="#glyph-0-4" x="147" y="64.125"/>
<use xlink:href="#glyph-0-0" x="150" y="64.125"/>
<use xlink:href="#glyph-0-25" x="153" y="64.125"/>
<use xlink:href="#glyph-0-7" x="156" y="64.125"/>
<use xlink:href="#glyph-0-7" x="159" y="64.125"/>
<use xlink:href="#glyph-0-7" x="162" y="64.125"/>
<use xlink:href="#glyph-0-26" x="165" y="64.125"/>
<use xlink:href="#glyph-0-7" x="168" y="64.125"/>
<use xlink:href="#glyph-0-43" x="171" y="64.125"/>
<use xlink:href="#glyph-0-17" x="174" y="64.125"/>
<use xlink:href="#glyph-0-23" x="177" y="64.125"/>
<use xlink:href="#glyph-0-20" x="180" y="64.125"/>
<use xlink:href="#glyph-0-44" x="183" y="64.125"/>
<use xlink:href="#glyph-0-7" x="186" y="64.125"/>
<use xlink:href="#glyph-0-34" x="189" y="64.125"/>
<use xlink:href="#glyph-0-14" x="192" y="64.125"/>
<use xlink:href="#glyph-0-7" x="195" y="64.125"/>
<use xlink:href="#glyph-0-11" x="198" y="64.125"/>
<use xlink:href="#glyph-0-2" x="201" y="64.125"/>
<use xlink:href="#glyph-0-7" x="204" y="64.125"/>
<use xlink:href="#glyph-0-23" x="207" y="64.125"/>
<use xlink:href="#glyph-0-21" x="210" y="64.125"/>
<use xlink:href="#glyph-0-21" x="213" y="64.125"/>
<use xlink:href="#glyph-0-7" x="216" y="64.125"/>
<use xlink:href="#glyph-0-19" x="219" y="64.125"/>
<use xlink:href="#glyph-0-17" x="222" y="64.125"/>
<use xlink:href="#glyph-0-23" x="225" y="64.125"/>
<use xlink:href="#glyph-0-20" x="228" y="64.125"/>
<use xlink:href="#glyph-0-44" x="231" y="64.125"/>
<use xlink:href="#glyph-0-1" x="234" y="64.125"/>
<use xlink:href="#glyph-0-20" x="237" y="64.125"/>
<use xlink:href="#glyph-0-7" x="240" y="64.125"/>
<use xlink:href="#glyph-0-11" x="243" y="64.125"/>
<use xlink:href="#glyph-0-10" x="246" y="64.125"/>
<use xlink:href="#glyph-0-7" x="249" y="64.125"/>
<use xlink:href="#glyph-0-21" x="252" y="64.125"/>
<use xlink:href="#glyph-0-17" x="255" y="64.125"/>
<use xlink:href="#glyph-0-4" x="258" y="64.125"/>
<use xlink:href="#glyph-0-0" x="261" y="64.125"/>
<use xlink:href="#glyph-0-7" x="264" y="64.125"/>
</g>
<g fill="rgb(100%, 100%, 100%)" fill-opacity="1">
<use xlink:href="#glyph-0-7" x="30" y="69.125"/>
<use xlink:href="#glyph-0-7" x="33" y="69.125"/>
<use xlink:href="#glyph-0-7" x="36" y="69.125"/>
<use xlink:href="#glyph-0-7" x="39" y="69.125"/>
<use xlink:href="#glyph-0-7" x="42" y="69.125"/>
<use xlink:href="#glyph-0-7" x="45" y="69.125"/>
<use xlink:href="#glyph-0-0" x="48" y="69.125"/>
<use xlink:href="#glyph-0-1" x="51" y="69.125"/>
<use xlink:href="#glyph-0-21" x="54" y="69.125"/>
<use xlink:href="#glyph-0-20" x="57" y="69.125"/>
<use xlink:href="#glyph-0-24" x="60" y="69.125"/>
<use xlink:href="#glyph-0-7" x="63" y="69.125"/>
<use xlink:href="#glyph-0-0" x="66" y="69.125"/>
<use xlink:href="#glyph-0-1" x="69" y="69.125"/>
<use xlink:href="#glyph-0-21" x="72" y="69.125"/>
<use xlink:href="#glyph-0-20" x="75" y="69.125"/>
<use xlink:href="#glyph-0-28" x="78" y="69.125"/>
<use xlink:href="#glyph-0-29" x="81" y="69.125"/>
<use xlink:href="#glyph-0-7" x="84" y="69.125"/>
<use xlink:href="#glyph-0-7" x="87" y="69.125"/>
<use xlink:href="#glyph-0-7" x="90" y="69.125"/>
<use xlink:href="#glyph-0-7" x="93" y="69.125"/>
<use xlink:href="#glyph-0-7" x="96" y="69.125"/>
<use xlink:href="#glyph-0-7" x="99" y="69.125"/>
<use xlink:href="#glyph-0-7" x="102" y="69.125"/>
<use xlink:href="#glyph-0-7" x="105" y="69.125"/>
<use xlink:href="#glyph-0-7" x="108" y="69.125"/>
<use xlink:href="#glyph-0-7" x="111" y="69.125"/>
<use xlink:href="#glyph-0-7" x="114" y="69.125"/>
<use xlink:href="#glyph-0-7" x="117" y="69.125"/>
<use xlink:href="#glyph-0-7" x="120" y="69.125"/>
<use xlink:href="#glyph-0-7" x="123" y="69.125"/>
<use xlink:href="#glyph-0-7" x="126" y="69.125"/>
<use xlink:href="#glyph-0-7" x="129" y="69.125"/>
<use xlink:href="#glyph-0-7" x="132" y="69.125"/>
<use xlink:href="#glyph-0-7" x="135" y="69.125"/>
<use xlink:href="#glyph-0-7" x="138" y="69.125"/>
<use xlink:href="#glyph-0-7" x="141" y="69.125"/>
<use xlink:href="#glyph-0-7" x="144" y="69.125"/>
<use xlink:href="#glyph-0-7" x="147" y="69.125"/>
<use xlink:href="#glyph-0-7" x="150" y="69.125"/>
<use xlink:href="#glyph-0-7" x="153" y="69.125"/>
<use xlink:href="#glyph-0-7" x="156" y="69.125"/>
<use xlink:href="#glyph-0-7" x="159" y="69.125"/>
<use xlink:href="#glyph-0-7" x="162" y="69.125"/>
<use xlink:href="#glyph-0-26" x="165" y="69.125"/>
<use xlink:href="#glyph-0-7" x="168" y="69.125"/>
<use xlink:href="#glyph-0-45" x="171" y="69.125"/>
<use xlink:href="#glyph-0-1" x="174" y="69.125"/>
<use xlink:href="#glyph-0-21" x="177" y="69.125"/>
<use xlink:href="#glyph-0-1" x="180" y="69.125"/>
<use xlink:href="#glyph-0-10" x="183" y="69.125"/>
<use xlink:href="#glyph-0-0" x="186" y="69.125"/>
<use xlink:href="#glyph-0-1" x="189" y="69.125"/>
<use xlink:href="#glyph-0-10" x="192" y="69.125"/>
<use xlink:href="#glyph-0-19" x="195" y="69.125"/>
<use xlink:href="#glyph-0-11" x="198" y="69.125"/>
<use xlink:href="#glyph-0-1" x="201" y="69.125"/>
<use xlink:href="#glyph-0-20" x="204" y="69.125"/>
<use xlink:href="#glyph-0-7" x="207" y="69.125"/>
<use xlink:href="#glyph-0-28" x="210" y="69.125"/>
<use xlink:href="#glyph-0-10" x="213" y="69.125"/>
<use xlink:href="#glyph-0-4" x="216" y="69.125"/>
<use xlink:href="#glyph-0-10" x="219" y="69.125"/>
<use xlink:href="#glyph-0-1" x="222" y="69.125"/>
<use xlink:href="#glyph-0-7" x="225" y="69.125"/>
<use xlink:href="#glyph-0-46" x="228" y="69.125"/>
<use xlink:href="#glyph-0-1" x="231" y="69.125"/>
<use xlink:href="#glyph-0-12" x="234" y="69.125"/>
<use xlink:href="#glyph-0-47" x="237" y="69.125"/>
<use xlink:href="#glyph-0-29" x="240" y="69.125"/>
<use xlink:href="#glyph-0-7" x="243" y="69.125"/>
</g>
<g fill="rgb(100%, 100%, 100%)" fill-opacity="1">
<use xlink:href="#glyph-0-7" x="30" y="74.125"/>
<use xlink:href="#glyph-0-7" x="33" y="74.125"/>
<use xlink:href="#glyph-0-7" x="36" y="74.125"/>
<use xlink:href="#glyph-0-7" x="39" y="74.125"/>
<use xlink:href="#glyph-0-48" x="42" y="74.125"/>
<use xlink:href="#glyph-0-7" x="45" y="74.125"/>
</g>
<g fill="rgb(100%, 100%, 100%)" fill-opacity="1">
<use xlink:href="#glyph-0-7" x="30" y="79.125"/>
<use xlink:href="#glyph-0-7" x="33" y="79.125"/>
<use xlink:href="#glyph-0-1" x="36" y="79.125"/>
<use xlink:href="#glyph-0-10" x="39" y="79.125"/>
<use xlink:href="#glyph-0-0" x="42" y="79.125"/>
<use xlink:href="#glyph-0-7" x="45" y="79.125"/>
</g>
<g fill="rgb(100%, 100%, 100%)" fill-opacity="1">
<use xlink:href="#glyph-0-7" x="30" y="89.125"/>
<use xlink:href="#glyph-0-7" x="33" y="89.125"/>
<use xlink:href="#glyph-0-0" x="36" y="89.125"/>
<use xlink:href="#glyph-0-1" x="39" y="89.125"/>
<use xlink:href="#glyph-0-2" x="42" y="89.125"/>
<use xlink:href="#glyph-0-7" x="45" y="89.125"/>
<use xlink:href="#glyph-0-23" x="48" y="89.125"/>
<use xlink:href="#glyph-0-21" x="51" y="89.125"/>
<use xlink:href="#glyph-0-21" x="54" y="89.125"/>
<use xlink:href="#glyph-0-6" x="57" y="89.125"/>
<use xlink:href="#glyph-0-11" x="60" y="89.125"/>
<use xlink:href="#glyph-0-19" x="63" y="89.125"/>
<use xlink:href="#glyph-0-23" x="66" y="89.125"/>
<use xlink:href="#glyph-0-12" x="69" y="89.125"/>
<use xlink:href="#glyph-0-11" x="72" y="89.125"/>
<use xlink:href="#glyph-0-4" x="75" y="89.125"/>
<use xlink:href="#glyph-0-10" x="78" y="89.125"/>
<use xlink:href="#glyph-0-7" x="81" y="89.125"/>
<use xlink:href="#glyph-0-0" x="84" y="89.125"/>
<use xlink:href="#glyph-0-4" x="87" y="89.125"/>
<use xlink:href="#glyph-0-7" x="90" y="89.125"/>
</g>
<g fill="rgb(100%, 100%, 100%)" fill-opacity="1">
<use xlink:href="#glyph-0-7" x="30" y="94.125"/>
<use xlink:href="#glyph-0-7" x="33" y="94.125"/>
<use xlink:href="#glyph-0-7" x="36" y="94.125"/>
<use xlink:href="#glyph-0-7" x="39" y="94.125"/>
<use xlink:href="#glyph-0-22" x="42" y="94.125"/>
<use xlink:href="#glyph-0-7" x="45" y="94.125"/>
</g>
<g fill="rgb(100%, 100%, 100%)" fill-opacity="1">
<use xlink:href="#glyph-0-7" x="30" y="99.125"/>
<use xlink:href="#glyph-0-7" x="33" y="99.125"/>
<use xlink:href="#glyph-0-7" x="36" y="99.125"/>
<use xlink:href="#glyph-0-7" x="39" y="99.125"/>
<use xlink:href="#glyph-0-7" x="42" y="99.125"/>
<use xlink:href="#glyph-0-7" x="45" y="99.125"/>
<use xlink:href="#glyph-0-1" x="48" y="99.125"/>
<use xlink:href="#glyph-0-15" x="51" y="99.125"/>
<use xlink:href="#glyph-0-12" x="54" y="99.125"/>
<use xlink:href="#glyph-0-17" x="57" y="99.125"/>
<use xlink:href="#glyph-0-23" x="60" y="99.125"/>
<use xlink:href="#glyph-0-41" x="63" y="99.125"/>
<use xlink:href="#glyph-0-23" x="66" y="99.125"/>
<use xlink:href="#glyph-0-21" x="69" y="99.125"/>
<use xlink:href="#glyph-0-21" x="72" y="99.125"/>
<use xlink:href="#glyph-0-6" x="75" y="99.125"/>
<use xlink:href="#glyph-0-11" x="78" y="99.125"/>
<use xlink:href="#glyph-0-19" x="81" y="99.125"/>
<use xlink:href="#glyph-0-23" x="84" y="99.125"/>
<use xlink:href="#glyph-0-12" x="87" y="99.125"/>
<use xlink:href="#glyph-0-11" x="90" y="99.125"/>
<use xlink:href="#glyph-0-4" x="93" y="99.125"/>
<use xlink:href="#glyph-0-10" x="96" y="99.125"/>
<use xlink:href="#glyph-0-20" x="99" y="99.125"/>
<use xlink:href="#glyph-0-24" x="102" y="99.125"/>
<use xlink:href="#glyph-0-7" x="105" y="99.125"/>
<use xlink:href="#glyph-0-22" x="108" y="99.125"/>
<use xlink:href="#glyph-0-24" x="111" y="99.125"/>
<use xlink:href="#glyph-0-6" x="114" y="99.125"/>
<use xlink:href="#glyph-0-4" x="117" y="99.125"/>
<use xlink:href="#glyph-0-9" x="120" y="99.125"/>
<use xlink:href="#glyph-0-9" x="123" y="99.125"/>
<use xlink:href="#glyph-0-1" x="126" y="99.125"/>
<use xlink:href="#glyph-0-17" x="129" y="99.125"/>
<use xlink:href="#glyph-0-48" x="132" y="99.125"/>
<use xlink:href="#glyph-0-25" x="135" y="99.125"/>
<use xlink:href="#glyph-0-7" x="138" y="99.125"/>
<use xlink:href="#glyph-0-7" x="141" y="99.125"/>
<use xlink:href="#glyph-0-7" x="144" y="99.125"/>
<use xlink:href="#glyph-0-7" x="147" y="99.125"/>
<use xlink:href="#glyph-0-7" x="150" y="99.125"/>
<use xlink:href="#glyph-0-7" x="153" y="99.125"/>
<use xlink:href="#glyph-0-7" x="156" y="99.125"/>
<use xlink:href="#glyph-0-7" x="159" y="99.125"/>
<use xlink:href="#glyph-0-7" x="162" y="99.125"/>
<use xlink:href="#glyph-0-7" x="165" y="99.125"/>
<use xlink:href="#glyph-0-26" x="168" y="99.125"/>
<use xlink:href="#glyph-0-7" x="171" y="99.125"/>
<use xlink:href="#glyph-0-8" x="174" y="99.125"/>
<use xlink:href="#glyph-0-10" x="177" y="99.125"/>
<use xlink:href="#glyph-0-19" x="180" y="99.125"/>
<use xlink:href="#glyph-0-6" x="183" y="99.125"/>
<use xlink:href="#glyph-0-5" x="186" y="99.125"/>
<use xlink:href="#glyph-0-0" x="189" y="99.125"/>
<use xlink:href="#glyph-0-1" x="192" y="99.125"/>
<use xlink:href="#glyph-0-7" x="195" y="99.125"/>
<use xlink:href="#glyph-0-40" x="198" y="99.125"/>
<use xlink:href="#glyph-0-6" x="201" y="99.125"/>
<use xlink:href="#glyph-0-11" x="204" y="99.125"/>
<use xlink:href="#glyph-0-15" x="207" y="99.125"/>
<use xlink:href="#glyph-0-11" x="210" y="99.125"/>
<use xlink:href="#glyph-0-17" x="213" y="99.125"/>
<use xlink:href="#glyph-0-49" x="216" y="99.125"/>
<use xlink:href="#glyph-0-20" x="219" y="99.125"/>
<use xlink:href="#glyph-0-7" x="222" y="99.125"/>
<use xlink:href="#glyph-0-6" x="225" y="99.125"/>
<use xlink:href="#glyph-0-4" x="228" y="99.125"/>
<use xlink:href="#glyph-0-9" x="231" y="99.125"/>
<use xlink:href="#glyph-0-9" x="234" y="99.125"/>
<use xlink:href="#glyph-0-1" x="237" y="99.125"/>
<use xlink:href="#glyph-0-17" x="240" y="99.125"/>
<use xlink:href="#glyph-0-7" x="243" y="99.125"/>
</g>
<g fill="rgb(100%, 100%, 100%)" fill-opacity="1">
<use xlink:href="#glyph-0-7" x="30" y="104.125"/>
<use xlink:href="#glyph-0-7" x="33" y="104.125"/>
<use xlink:href="#glyph-0-7" x="36" y="104.125"/>
<use xlink:href="#glyph-0-7" x="39" y="104.125"/>
<use xlink:href="#glyph-0-7" x="42" y="104.125"/>
<use xlink:href="#glyph-0-7" x="45" y="104.125"/>
<use xlink:href="#glyph-0-3" x="48" y="104.125"/>
<use xlink:href="#glyph-0-4" x="51" y="104.125"/>
<use xlink:href="#glyph-0-0" x="54" y="104.125"/>
<use xlink:href="#glyph-0-24" x="57" y="104.125"/>
<use xlink:href="#glyph-0-7" x="60" y="104.125"/>
<use xlink:href="#glyph-0-50" x="63" y="104.125"/>
<use xlink:href="#glyph-0-8" x="66" y="104.125"/>
<use xlink:href="#glyph-0-9" x="69" y="104.125"/>
<use xlink:href="#glyph-0-10" x="72" y="104.125"/>
<use xlink:href="#glyph-0-11" x="75" y="104.125"/>
<use xlink:href="#glyph-0-12" x="78" y="104.125"/>
<use xlink:href="#glyph-0-1" x="81" y="104.125"/>
<use xlink:href="#glyph-0-13" x="84" y="104.125"/>
<use xlink:href="#glyph-0-27" x="87" y="104.125"/>
<use xlink:href="#glyph-0-21" x="90" y="104.125"/>
<use xlink:href="#glyph-0-21" x="93" y="104.125"/>
<use xlink:href="#glyph-0-6" x="96" y="104.125"/>
<use xlink:href="#glyph-0-11" x="99" y="104.125"/>
<use xlink:href="#glyph-0-19" x="102" y="104.125"/>
<use xlink:href="#glyph-0-23" x="105" y="104.125"/>
<use xlink:href="#glyph-0-12" x="108" y="104.125"/>
<use xlink:href="#glyph-0-11" x="111" y="104.125"/>
<use xlink:href="#glyph-0-4" x="114" y="104.125"/>
<use xlink:href="#glyph-0-10" x="117" y="104.125"/>
<use xlink:href="#glyph-0-25" x="120" y="104.125"/>
<use xlink:href="#glyph-0-7" x="123" y="104.125"/>
<use xlink:href="#glyph-0-22" x="126" y="104.125"/>
<use xlink:href="#glyph-0-48" x="129" y="104.125"/>
<use xlink:href="#glyph-0-51" x="132" y="104.125"/>
<use xlink:href="#glyph-0-7" x="135" y="104.125"/>
<use xlink:href="#glyph-0-7" x="138" y="104.125"/>
<use xlink:href="#glyph-0-7" x="141" y="104.125"/>
<use xlink:href="#glyph-0-7" x="144" y="104.125"/>
<use xlink:href="#glyph-0-7" x="147" y="104.125"/>
<use xlink:href="#glyph-0-7" x="150" y="104.125"/>
<use xlink:href="#glyph-0-7" x="153" y="104.125"/>
<use xlink:href="#glyph-0-7" x="156" y="104.125"/>
<use xlink:href="#glyph-0-7" x="159" y="104.125"/>
<use xlink:href="#glyph-0-7" x="162" y="104.125"/>
<use xlink:href="#glyph-0-7" x="165" y="104.125"/>
<use xlink:href="#glyph-0-26" x="168" y="104.125"/>
<use xlink:href="#glyph-0-7" x="171" y="104.125"/>
<use xlink:href="#glyph-0-40" x="174" y="104.125"/>
<use xlink:href="#glyph-0-10" x="177" y="104.125"/>
<use xlink:href="#glyph-0-12" x="180" y="104.125"/>
<use xlink:href="#glyph-0-17" x="183" y="104.125"/>
<use xlink:href="#glyph-0-46" x="186" y="104.125"/>
<use xlink:href="#glyph-0-7" x="189" y="104.125"/>
<use xlink:href="#glyph-0-21" x="192" y="104.125"/>
<use xlink:href="#glyph-0-4" x="195" y="104.125"/>
<use xlink:href="#glyph-0-11" x="198" y="104.125"/>
<use xlink:href="#glyph-0-10" x="201" y="104.125"/>
<use xlink:href="#glyph-0-12" x="204" y="104.125"/>
<use xlink:href="#glyph-0-7" x="207" y="104.125"/>
<use xlink:href="#glyph-0-3" x="210" y="104.125"/>
<use xlink:href="#glyph-0-4" x="213" y="104.125"/>
<use xlink:href="#glyph-0-0" x="216" y="104.125"/>
<use xlink:href="#glyph-0-5" x="219" y="104.125"/>
<use xlink:href="#glyph-0-6" x="222" y="104.125"/>
<use xlink:href="#glyph-0-1" x="225" y="104.125"/>
<use xlink:href="#glyph-0-7" x="228" y="104.125"/>
</g>
<g fill="rgb(100%, 100%, 100%)" fill-opacity="1">
<use xlink:href="#glyph-0-7" x="30" y="109.125"/>
<use xlink:href="#glyph-0-7" x="33" y="109.125"/>
<use xlink:href="#glyph-0-7" x="36" y="109.125"/>
<use xlink:href="#glyph-0-7" x="39" y="109.125"/>
<use xlink:href="#glyph-0-48" x="42" y="109.125"/>
<use xlink:href="#glyph-0-7" x="45" y="109.125"/>
</g>
<g fill="rgb(100%, 100%, 100%)" fill-opacity="1">
<use xlink:href="#glyph-0-7" x="30" y="114.125"/>
<use xlink:href="#glyph-0-7" x="33" y="114.125"/>
<use xlink:href="#glyph-0-1" x="36" y="114.125"/>
<use xlink:href="#glyph-0-10" x="39" y="114.125"/>
<use xlink:href="#glyph-0-0" x="42" y="114.125"/>
<use xlink:href="#glyph-0-7" x="45" y="114.125"/>
</g>
<g fill="rgb(100%, 100%, 100%)" fill-opacity="1">
<use xlink:href="#glyph-0-7" x="30" y="124.125"/>
<use xlink:href="#glyph-0-7" x="33" y="124.125"/>
<use xlink:href="#glyph-0-0" x="36" y="124.125"/>
<use xlink:href="#glyph-0-1" x="39" y="124.125"/>
<use xlink:href="#glyph-0-2" x="42" y="124.125"/>
<use xlink:href="#glyph-0-21" x="45" y="124.125"/>
<use xlink:href="#glyph-0-7" x="48" y="124.125"/>
<use xlink:href="#glyph-0-0" x="51" y="124.125"/>
<use xlink:href="#glyph-0-1" x="54" y="124.125"/>
<use xlink:href="#glyph-0-21" x="57" y="124.125"/>
<use xlink:href="#glyph-0-20" x="60" y="124.125"/>
<use xlink:href="#glyph-0-7" x="63" y="124.125"/>
<use xlink:href="#glyph-0-0" x="66" y="124.125"/>
<use xlink:href="#glyph-0-4" x="69" y="124.125"/>
<use xlink:href="#glyph-0-7" x="72" y="124.125"/>
</g>
<g fill="rgb(100%, 100%, 100%)" fill-opacity="1">
<use xlink:href="#glyph-0-7" x="30" y="129.125"/>
<use xlink:href="#glyph-0-7" x="33" y="129.125"/>
<use xlink:href="#glyph-0-7" x="36" y="129.125"/>
<use xlink:href="#glyph-0-7" x="39" y="129.125"/>
<use xlink:href="#glyph-0-22" x="42" y="129.125"/>
<use xlink:href="#glyph-0-48" x="45" y="129.125"/>
<use xlink:href="#glyph-0-7" x="48" y="129.125"/>
<use xlink:href="#glyph-0-7" x="51" y="129.125"/>
<use xlink:href="#glyph-0-7" x="54" y="129.125"/>
<use xlink:href="#glyph-0-26" x="57" y="129.125"/>
<use xlink:href="#glyph-0-7" x="60" y="129.125"/>
<use xlink:href="#glyph-0-52" x="63" y="129.125"/>
<use xlink:href="#glyph-0-4" x="66" y="129.125"/>
<use xlink:href="#glyph-0-7" x="69" y="129.125"/>
<use xlink:href="#glyph-0-0" x="72" y="129.125"/>
<use xlink:href="#glyph-0-1" x="75" y="129.125"/>
<use xlink:href="#glyph-0-21" x="78" y="129.125"/>
<use xlink:href="#glyph-0-1" x="81" y="129.125"/>
<use xlink:href="#glyph-0-10" x="84" y="129.125"/>
<use xlink:href="#glyph-0-0" x="87" y="129.125"/>
<use xlink:href="#glyph-0-1" x="90" y="129.125"/>
<use xlink:href="#glyph-0-10" x="93" y="129.125"/>
<use xlink:href="#glyph-0-19" x="96" y="129.125"/>
<use xlink:href="#glyph-0-11" x="99" y="129.125"/>
<use xlink:href="#glyph-0-1" x="102" y="129.125"/>
<use xlink:href="#glyph-0-20" x="105" y="129.125"/>
<use xlink:href="#glyph-0-7" x="108" y="129.125"/>
<use xlink:href="#glyph-0-2" x="111" y="129.125"/>
<use xlink:href="#glyph-0-4" x="114" y="129.125"/>
<use xlink:href="#glyph-0-17" x="117" y="129.125"/>
<use xlink:href="#glyph-0-7" x="120" y="129.125"/>
<use xlink:href="#glyph-0-53" x="123" y="129.125"/>
<use xlink:href="#glyph-0-12" x="126" y="129.125"/>
<use xlink:href="#glyph-0-1" x="129" y="129.125"/>
<use xlink:href="#glyph-0-21" x="132" y="129.125"/>
<use xlink:href="#glyph-0-20" x="135" y="129.125"/>
<use xlink:href="#glyph-0-7" x="138" y="129.125"/>
<use xlink:href="#glyph-0-33" x="141" y="129.125"/>
<use xlink:href="#glyph-0-54" x="144" y="129.125"/>
<use xlink:href="#glyph-0-55" x="147" y="129.125"/>
<use xlink:href="#glyph-0-47" x="150" y="129.125"/>
<use xlink:href="#glyph-0-7" x="153" y="129.125"/>
</g>
<g fill="rgb(100%, 100%, 100%)" fill-opacity="1">
<use xlink:href="#glyph-0-7" x="30" y="134.125"/>
<use xlink:href="#glyph-0-7" x="33" y="134.125"/>
<use xlink:href="#glyph-0-1" x="36" y="134.125"/>
<use xlink:href="#glyph-0-10" x="39" y="134.125"/>
<use xlink:href="#glyph-0-0" x="42" y="134.125"/>
<use xlink:href="#glyph-0-7" x="45" y="134.125"/>
</g>
<g fill="rgb(100%, 100%, 100%)" fill-opacity="1">
<use xlink:href="#glyph-0-1" x="30" y="139.125"/>
<use xlink:href="#glyph-0-10" x="33" y="139.125"/>
<use xlink:href="#glyph-0-0" x="36" y="139.125"/>
</g>
</svg>
