<?xml version="1.0" encoding="UTF-8"?>
<svg xmlns="http://www.w3.org/2000/svg" xmlns:xlink="http://www.w3.org/1999/xlink" width="1280" height="720" viewBox="0 0 1280 720">
<defs>
<g>
<g id="glyph-0-0">
<path d="M 1.46875 -2.1875 C 1.507812 -2.28125 1.566406 -2.351562 1.640625 -2.40625 C 1.722656 -2.457031 1.816406 -2.484375 1.921875 -2.484375 C 2.117188 -2.484375 2.253906 -2.40625 2.328125 -2.25 C 2.410156 -2.101562 2.453125 -1.820312 2.453125 -1.40625 L 2.453125 0 L 2.09375 0 L 2.09375 -1.390625 C 2.09375 -1.734375 2.070312 -1.945312 2.03125 -2.03125 C 2 -2.113281 1.929688 -2.15625 1.828125 -2.15625 C 1.710938 -2.15625 1.632812 -2.109375 1.59375 -2.015625 C 1.550781 -1.929688 1.53125 -1.722656 1.53125 -1.390625 L 1.53125 0 L 1.15625 0 L 1.15625 -1.390625 C 1.15625 -1.734375 1.132812 -1.945312 1.09375 -2.03125 C 1.0625 -2.113281 0.988281 -2.15625 0.875 -2.15625 C 0.769531 -2.15625 0.695312 -2.109375 0.65625 -2.015625 C 0.613281 -1.929688 0.59375 -1.722656 0.59375 -1.390625 L 0.59375 0 L 0.234375 0 L 0.234375 -2.421875 L 0.59375 -2.421875 L 0.59375 -2.21875 C 0.644531 -2.300781 0.707031 -2.363281 0.78125 -2.40625 C 0.851562 -2.457031 0.929688 -2.484375 1.015625 -2.484375 C 1.128906 -2.484375 1.222656 -2.457031 1.296875 -2.40625 C 1.367188 -2.351562 1.425781 -2.28125 1.46875 -2.1875 Z "/>
</g>
<g id="glyph-0-1">
<path d="M 0.5625 -2.421875 L 1.578125 -2.421875 L 1.578125 -0.3125 L 2.359375 -0.3125 L 2.359375 0 L 0.390625 0 L 0.390625 -0.3125 L 1.171875 -0.3125 L 1.171875 -2.109375 L 0.5625 -2.109375 Z M 1.171875 -3.375 L 1.578125 -3.375 L 1.578125 -2.859375 L 1.171875 -2.859375 Z "/>
</g>
<g id="glyph-0-2">
<path d="M 2.421875 -2.421875 L 1.546875 -1.265625 L 2.5 0 L 2.046875 0 L 1.328125 -0.96875 L 0.625 0 L 0.171875 0 L 1.125 -1.265625 L 0.25 -2.421875 L 0.6875 -2.421875 L 1.328125 -1.546875 L 1.96875 -2.421875 Z "/>
</g>
<g id="glyph-0-3">
</g>
<g id="glyph-0-4">
<path d="M 1.328125 -3.109375 L 1.328125 -2.421875 L 2.234375 -2.421875 L 2.234375 -2.109375 L 1.328125 -2.109375 L 1.328125 -0.796875 C 1.328125 -0.617188 1.359375 -0.492188 1.421875 -0.421875 C 1.492188 -0.347656 1.613281 -0.3125 1.78125 -0.3125 L 2.234375 -0.3125 L 2.234375 0 L 1.75 0 C 1.445312 0 1.234375 -0.0546875 1.109375 -0.171875 C 0.992188 -0.296875 0.9375 -0.503906 0.9375 -0.796875 L 0.9375 -2.109375 L 0.28125 -2.109375 L 0.28125 -2.421875 L 0.9375 -2.421875 L 0.9375 -3.109375 Z "/>
</g>
<g id="glyph-0-5">
<path d="M 2.40625 -1.3125 L 2.40625 -1.125 L 0.6875 -1.125 L 0.6875 -1.109375 C 0.6875 -0.835938 0.753906 -0.628906 0.890625 -0.484375 C 1.023438 -0.347656 1.21875 -0.28125 1.46875 -0.28125 C 1.601562 -0.28125 1.738281 -0.296875 1.875 -0.328125 C 2.007812 -0.367188 2.15625 -0.429688 2.3125 -0.515625 L 2.3125 -0.125 C 2.164062 -0.0625 2.019531 -0.015625 1.875 0.015625 C 1.738281 0.046875 1.601562 0.0625 1.46875 0.0625 C 1.09375 0.0625 0.796875 -0.046875 0.578125 -0.265625 C 0.367188 -0.492188 0.265625 -0.8125 0.265625 -1.21875 C 0.265625 -1.601562 0.367188 -1.910156 0.578125 -2.140625 C 0.785156 -2.367188 1.0625 -2.484375 1.40625 -2.484375 C 1.71875 -2.484375 1.960938 -2.378906 2.140625 -2.171875 C 2.316406 -1.960938 2.40625 -1.675781 2.40625 -1.3125 Z M 2.015625 -1.4375 C 2.003906 -1.664062 1.945312 -1.835938 1.84375 -1.953125 C 1.738281 -2.078125 1.585938 -2.140625 1.390625 -2.140625 C 1.203125 -2.140625 1.046875 -2.078125 0.921875 -1.953125 C 0.796875 -1.828125 0.722656 -1.648438 0.703125 -1.421875 Z "/>
</g>
<g id="glyph-0-6">
<path d="M 2.109375 -2.34375 L 2.109375 -1.953125 C 1.992188 -2.015625 1.878906 -2.0625 1.765625 -2.09375 C 1.648438 -2.132812 1.53125 -2.15625 1.40625 -2.15625 C 1.226562 -2.15625 1.09375 -2.125 1 -2.0625 C 0.914062 -2 0.875 -1.910156 0.875 -1.796875 C 0.875 -1.691406 0.90625 -1.609375 0.96875 -1.546875 C 1.039062 -1.492188 1.207031 -1.441406 1.46875 -1.390625 L 1.625 -1.375 C 1.820312 -1.332031 1.972656 -1.253906 2.078125 -1.140625 C 2.179688 -1.023438 2.234375 -0.878906 2.234375 -0.703125 C 2.234375 -0.460938 2.144531 -0.273438 1.96875 -0.140625 C 1.800781 -0.00390625 1.566406 0.0625 1.265625 0.0625 C 1.140625 0.0625 1.007812 0.046875 0.875 0.015625 C 0.75 -0.00390625 0.613281 -0.0390625 0.46875 -0.09375 L 0.46875 -0.5 C 0.613281 -0.425781 0.753906 -0.367188 0.890625 -0.328125 C 1.023438 -0.285156 1.15625 -0.265625 1.28125 -0.265625 C 1.445312 -0.265625 1.578125 -0.300781 1.671875 -0.375 C 1.773438 -0.445312 1.828125 -0.546875 1.828125 -0.671875 C 1.828125 -0.859375 1.648438 -0.988281 1.296875 -1.0625 L 1.28125 -1.0625 L 1.125 -1.09375 C 0.894531 -1.132812 0.726562 -1.207031 0.625 -1.3125 C 0.519531 -1.425781 0.46875 -1.570312 0.46875 -1.75 C 0.46875 -1.988281 0.546875 -2.171875 0.703125 -2.296875 C 0.859375 -2.421875 1.082031 -2.484375 1.375 -2.484375 C 1.507812 -2.484375 1.632812 -2.46875 1.75 -2.4375 C 1.875 -2.414062 1.992188 -2.382812 2.109375 -2.34375 Z "/>
</g>
</g>
</defs>
<g fill="rgb(100%, 100%, 100%)" fill-opacity="1">
<use xlink:href="#glyph-0-0" x="30" y="24.125"/>
<use xlink:href="#glyph-0-1" x="33" y="24.125"/>
<use xlink:href="#glyph-0-2" x="36" y="24.125"/>
<use xlink:href="#glyph-0-3" x="39" y="24.125"/>
<use xlink:href="#glyph-0-4" x="42" y="24.125"/>
<use xlink:href="#glyph-0-5" x="45" y="24.125"/>
<use xlink:href="#glyph-0-6" x="48" y="24.125"/>
<use xlink:href="#glyph-0-4" x="51" y="24.125"/>
</g>
</svg>
