<?xml version="1.0" encoding="UTF-8"?>
<svg xmlns="http://www.w3.org/2000/svg" xmlns:xlink="http://www.w3.org/1999/xlink" width="1280" height="720" viewBox="0 0 1280 720">
<defs>
<g>
<g id="glyph-0-0">
<path d="M 4.84375 -7.125 L 4.84375 -6.21875 C 4.632812 -6.34375 4.414062 -6.4375 4.1875 -6.5 C 3.957031 -6.5625 3.71875 -6.59375 3.46875 -6.59375 C 2.84375 -6.59375 2.367188 -6.359375 2.046875 -5.890625 C 1.722656 -5.421875 1.5625 -4.726562 1.5625 -3.8125 C 1.71875 -4.132812 1.929688 -4.378906 2.203125 -4.546875 C 2.484375 -4.722656 2.800781 -4.8125 3.15625 -4.8125 C 3.863281 -4.8125 4.410156 -4.597656 4.796875 -4.171875 C 5.179688 -3.742188 5.375 -3.132812 5.375 -2.34375 C 5.375 -1.550781 5.175781 -0.9375 4.78125 -0.5 C 4.382812 -0.0703125 3.820312 0.140625 3.09375 0.140625 C 2.25 0.140625 1.628906 -0.160156 1.234375 -0.765625 C 0.847656 -1.378906 0.65625 -2.335938 0.65625 -3.640625 C 0.65625 -4.867188 0.890625 -5.804688 1.359375 -6.453125 C 1.835938 -7.097656 2.523438 -7.421875 3.421875 -7.421875 C 3.660156 -7.421875 3.898438 -7.394531 4.140625 -7.34375 C 4.378906 -7.289062 4.613281 -7.21875 4.84375 -7.125 Z M 3.078125 -4.046875 C 2.660156 -4.046875 2.332031 -3.894531 2.09375 -3.59375 C 1.851562 -3.289062 1.734375 -2.875 1.734375 -2.34375 C 1.734375 -1.800781 1.851562 -1.378906 2.09375 -1.078125 C 2.332031 -0.773438 2.660156 -0.625 3.078125 -0.625 C 3.515625 -0.625 3.84375 -0.769531 4.0625 -1.0625 C 4.289062 -1.351562 4.40625 -1.78125 4.40625 -2.34375 C 4.40625 -2.90625 4.289062 -3.328125 4.0625 -3.609375 C 3.84375 -3.898438 3.515625 -4.046875 3.078125 -4.046875 Z "/>
</g>
<g id="glyph-0-1">
<path d="M 2.390625 -1.484375 L 3.625 -1.484375 L 3.625 0 L 2.390625 0 Z "/>
</g>
<g id="glyph-0-2">
</g>
<g id="glyph-0-3">
<path d="M 3.71875 -3.4375 C 3.96875 -3.375 4.179688 -3.25 4.359375 -3.0625 C 4.535156 -2.882812 4.757812 -2.53125 5.03125 -2 L 6.015625 0 L 4.96875 0 L 4.09375 -1.84375 C 3.84375 -2.363281 3.613281 -2.695312 3.40625 -2.84375 C 3.207031 -3 2.945312 -3.078125 2.625 -3.078125 L 1.6875 -3.078125 L 1.6875 0 L 0.703125 0 L 0.703125 -7.296875 L 2.734375 -7.296875 C 3.535156 -7.296875 4.144531 -7.113281 4.5625 -6.75 C 4.988281 -6.382812 5.203125 -5.863281 5.203125 -5.1875 C 5.203125 -4.695312 5.070312 -4.300781 4.8125 -4 C 4.550781 -3.695312 4.1875 -3.507812 3.71875 -3.4375 Z M 1.6875 -6.484375 L 1.6875 -3.890625 L 2.765625 -3.890625 C 3.242188 -3.890625 3.597656 -3.992188 3.828125 -4.203125 C 4.054688 -4.421875 4.171875 -4.75 4.171875 -5.1875 C 4.171875 -5.601562 4.046875 -5.921875 3.796875 -6.140625 C 3.554688 -6.367188 3.203125 -6.484375 2.734375 -6.484375 Z "/>
</g>
<g id="glyph-0-4">
<path d="M 0.953125 -2.078125 L 0.953125 -5.453125 L 1.84375 -5.453125 L 1.84375 -2.078125 C 1.84375 -1.578125 1.929688 -1.210938 2.109375 -0.984375 C 2.285156 -0.753906 2.554688 -0.640625 2.921875 -0.640625 C 3.347656 -0.640625 3.671875 -0.785156 3.890625 -1.078125 C 4.117188 -1.378906 4.234375 -1.8125 4.234375 -2.375 L 4.234375 -5.453125 L 5.125 -5.453125 L 5.125 0 L 4.234375 0 L 4.234375 -0.828125 C 4.066406 -0.503906 3.847656 -0.257812 3.578125 -0.09375 C 3.304688 0.0625 2.984375 0.140625 2.609375 0.140625 C 2.046875 0.140625 1.628906 -0.0390625 1.359375 -0.40625 C 1.085938 -0.769531 0.953125 -1.328125 0.953125 -2.078125 Z "/>
</g>
<g id="glyph-0-5">
<path d="M 5.125 -3.390625 L 5.125 0 L 4.234375 0 L 4.234375 -3.390625 C 4.234375 -3.878906 4.144531 -4.238281 3.96875 -4.46875 C 3.800781 -4.695312 3.53125 -4.8125 3.15625 -4.8125 C 2.738281 -4.8125 2.414062 -4.660156 2.1875 -4.359375 C 1.957031 -4.066406 1.84375 -3.644531 1.84375 -3.09375 L 1.84375 0 L 0.953125 0 L 0.953125 -5.46875 L 1.84375 -5.46875 L 1.84375 -4.65625 C 2.007812 -4.96875 2.226562 -5.203125 2.5 -5.359375 C 2.769531 -5.515625 3.09375 -5.59375 3.46875 -5.59375 C 4.03125 -5.59375 4.445312 -5.410156 4.71875 -5.046875 C 4.988281 -4.679688 5.125 -4.128906 5.125 -3.390625 Z "/>
</g>
<g id="glyph-0-6">
<path d="M 3 -7.015625 L 3 -5.46875 L 5.046875 -5.46875 L 5.046875 -4.765625 L 3 -4.765625 L 3 -1.796875 C 3 -1.398438 3.070312 -1.117188 3.21875 -0.953125 C 3.375 -0.796875 3.644531 -0.71875 4.03125 -0.71875 L 5.046875 -0.71875 L 5.046875 0 L 3.9375 0 C 3.269531 0 2.796875 -0.132812 2.515625 -0.40625 C 2.234375 -0.675781 2.09375 -1.140625 2.09375 -1.796875 L 2.09375 -4.765625 L 0.640625 -4.765625 L 0.640625 -5.46875 L 2.09375 -5.46875 L 2.09375 -7.015625 Z "/>
</g>
<g id="glyph-0-7">
<path d="M 5.125 -3.390625 L 5.125 0 L 4.234375 0 L 4.234375 -3.390625 C 4.234375 -3.878906 4.144531 -4.238281 3.96875 -4.46875 C 3.800781 -4.695312 3.53125 -4.8125 3.15625 -4.8125 C 2.738281 -4.8125 2.414062 -4.660156 2.1875 -4.359375 C 1.957031 -4.066406 1.84375 -3.644531 1.84375 -3.09375 L 1.84375 0 L 0.953125 0 L 0.953125 -7.59375 L 1.84375 -7.59375 L 1.84375 -4.65625 C 2.007812 -4.96875 2.226562 -5.203125 2.5 -5.359375 C 2.769531 -5.515625 3.09375 -5.59375 3.46875 -5.59375 C 4.03125 -5.59375 4.445312 -5.410156 4.71875 -5.046875 C 4.988281 -4.679688 5.125 -4.128906 5.125 -3.390625 Z "/>
</g>
<g id="glyph-0-8">
<path d="M 5.4375 -2.953125 L 5.4375 -2.515625 L 1.53125 -2.515625 L 1.53125 -2.484375 C 1.53125 -1.890625 1.6875 -1.429688 2 -1.109375 C 2.3125 -0.785156 2.753906 -0.625 3.328125 -0.625 C 3.609375 -0.625 3.90625 -0.664062 4.21875 -0.75 C 4.53125 -0.84375 4.863281 -0.984375 5.21875 -1.171875 L 5.21875 -0.28125 C 4.875 -0.132812 4.539062 -0.03125 4.21875 0.03125 C 3.90625 0.101562 3.601562 0.140625 3.3125 0.140625 C 2.457031 0.140625 1.789062 -0.113281 1.3125 -0.625 C 0.832031 -1.132812 0.59375 -1.835938 0.59375 -2.734375 C 0.59375 -3.597656 0.828125 -4.289062 1.296875 -4.8125 C 1.765625 -5.332031 2.390625 -5.59375 3.171875 -5.59375 C 3.867188 -5.59375 4.421875 -5.359375 4.828125 -4.890625 C 5.234375 -4.421875 5.4375 -3.773438 5.4375 -2.953125 Z M 4.53125 -3.21875 C 4.519531 -3.75 4.394531 -4.148438 4.15625 -4.421875 C 3.914062 -4.703125 3.578125 -4.84375 3.140625 -4.84375 C 2.703125 -4.84375 2.34375 -4.695312 2.0625 -4.40625 C 1.789062 -4.125 1.628906 -3.726562 1.578125 -3.21875 Z "/>
</g>
<g id="glyph-0-9">
<path d="M 4.75 -5.28125 L 4.75 -4.40625 C 4.488281 -4.550781 4.226562 -4.660156 3.96875 -4.734375 C 3.707031 -4.804688 3.441406 -4.84375 3.171875 -4.84375 C 2.765625 -4.84375 2.460938 -4.773438 2.265625 -4.640625 C 2.066406 -4.515625 1.96875 -4.316406 1.96875 -4.046875 C 1.96875 -3.804688 2.039062 -3.625 2.1875 -3.5 C 2.34375 -3.382812 2.71875 -3.269531 3.3125 -3.15625 L 3.671875 -3.078125 C 4.117188 -2.992188 4.457031 -2.820312 4.6875 -2.5625 C 4.914062 -2.3125 5.03125 -1.984375 5.03125 -1.578125 C 5.03125 -1.035156 4.835938 -0.613281 4.453125 -0.3125 C 4.066406 -0.0078125 3.535156 0.140625 2.859375 0.140625 C 2.585938 0.140625 2.300781 0.109375 2 0.046875 C 1.707031 -0.00390625 1.390625 -0.0859375 1.046875 -0.203125 L 1.046875 -1.125 C 1.378906 -0.957031 1.695312 -0.828125 2 -0.734375 C 2.3125 -0.648438 2.601562 -0.609375 2.875 -0.609375 C 3.269531 -0.609375 3.578125 -0.6875 3.796875 -0.84375 C 4.015625 -1.007812 4.125 -1.238281 4.125 -1.53125 C 4.125 -1.945312 3.722656 -2.234375 2.921875 -2.390625 L 2.890625 -2.40625 L 2.546875 -2.46875 C 2.023438 -2.570312 1.644531 -2.742188 1.40625 -2.984375 C 1.175781 -3.222656 1.0625 -3.546875 1.0625 -3.953125 C 1.0625 -4.484375 1.238281 -4.890625 1.59375 -5.171875 C 1.945312 -5.453125 2.453125 -5.59375 3.109375 -5.59375 C 3.398438 -5.59375 3.679688 -5.566406 3.953125 -5.515625 C 4.222656 -5.460938 4.488281 -5.382812 4.75 -5.28125 Z "/>
</g>
</g>
</defs>
<g fill="rgb(86.666667%, 86.666667%, 86.666667%)" fill-opacity="1">
<use xlink:href="#glyph-0-0" x="30" y="29.282227"/>
<use xlink:href="#glyph-0-1" x="36" y="29.282227"/>
<use xlink:href="#glyph-0-2" x="42" y="29.282227"/>
<use xlink:href="#glyph-0-3" x="48" y="29.282227"/>
<use xlink:href="#glyph-0-4" x="54" y="29.282227"/>
<use xlink:href="#glyph-0-5" x="60" y="29.282227"/>
<use xlink:href="#glyph-0-2" x="66" y="29.282227"/>
<use xlink:href="#glyph-0-6" x="72" y="29.282227"/>
<use xlink:href="#glyph-0-7" x="78" y="29.282227"/>
<use xlink:href="#glyph-0-8" x="84" y="29.282227"/>
<use xlink:href="#glyph-0-2" x="90" y="29.282227"/>
<use xlink:href="#glyph-0-6" x="96" y="29.282227"/>
<use xlink:href="#glyph-0-8" x="102" y="29.282227"/>
<use xlink:href="#glyph-0-9" x="108" y="29.282227"/>
<use xlink:href="#glyph-0-6" x="114" y="29.282227"/>
<use xlink:href="#glyph-0-9" x="120" y="29.282227"/>
</g>
</svg>
